<svg width="24" height="24" viewBox="0 0 24 24" fill="none" xmlns="http://www.w3.org/2000/svg">
<path d="M21.9922 7.34178C21.9022 9.29178 20.5422 11.9618 17.9122 15.3618C15.1922 18.9218 12.8922 20.6718 10.9922 20.6718C9.84219 20.6718 8.85219 19.5918 8.04219 17.4218C7.49219 15.4618 6.99219 13.4818 6.43219 11.5018C5.83219 9.34178 5.19219 8.26178 4.49219 8.26178C4.35219 8.26178 3.83219 8.58178 2.93219 9.21178L1.99219 7.99178C2.99219 7.12178 3.95219 6.25178 4.91219 5.38178C6.23219 4.24178 7.22219 3.64178 7.87219 3.58178C9.43219 3.42178 10.3922 4.50178 10.7522 6.78178C11.1422 9.25178 11.4122 10.7818 11.5622 11.3818C11.9922 13.4218 12.4922 14.4218 13.0422 14.4218C13.4622 14.4218 14.0922 13.7818 14.9322 12.4518C15.7722 11.1318 16.2222 10.1218 16.2822 9.42178C16.4022 8.28178 15.9522 7.71178 14.9322 7.71178C14.4522 7.71178 13.9622 7.82178 13.4522 8.04178C14.4322 4.81178 16.3122 3.24178 19.0822 3.33178C21.1422 3.39178 22.1122 4.73178 21.9922 7.34178Z" fill="white"/>
</svg>
