<svg fill="currentColor" width="98" height="76" viewBox="0 0 98 76" xmlns="http://www.w3.org/2000/svg">
<path d="M9.74881 22.3226C10.1253 22.3215 10.5018 22.3204 10.8898 22.3193C11.4919 22.3204 11.4919 22.3204 12.1062 22.3214C12.5222 22.3211 12.9381 22.3208 13.3667 22.3204C14.2437 22.3202 15.1207 22.3208 15.9977 22.3222C17.3431 22.3241 18.6884 22.3223 20.0337 22.3201C20.886 22.3203 21.7383 22.3207 22.5906 22.3214C23.1958 22.3204 23.1958 22.3204 23.8133 22.3193C24.1866 22.3204 24.5599 22.3215 24.9445 22.3226C25.4377 22.323 25.4377 22.323 25.9407 22.3234C26.7698 22.3664 26.7698 22.3664 27.7864 22.7053C27.2475 24.43 26.1785 25.7128 25.0753 27.1109C25.2588 27.3749 25.2588 27.3749 25.446 27.6444C27.008 29.9917 27.008 29.9917 26.7698 31.5164C26.2502 31.4339 26.2502 31.4339 25.72 31.3496C21.8124 30.8411 17.768 31.2219 13.8451 31.4256C13.505 31.442 13.1649 31.4585 12.8144 31.4754C12.5078 31.4914 12.2012 31.5073 11.8853 31.5238C11.1809 31.5164 11.1809 31.5164 10.842 31.1775C10.7996 29.9914 10.7996 29.9914 10.842 28.8053C11.638 28.0093 13.4729 28.2051 14.5486 28.1064C14.8581 28.0756 15.1676 28.0448 15.4865 28.013C17.5593 27.8179 19.6051 27.7505 21.6864 27.7886C21.7983 27.0058 21.9101 26.223 22.0253 25.4164C21.7138 25.4318 21.7138 25.4318 21.3959 25.4475C17.1967 25.6517 13.0132 25.8102 8.80867 25.7553C8.96463 26.254 8.96463 26.254 9.12373 26.7627C9.52239 28.158 9.70704 29.5475 9.8677 30.9869C9.89697 31.2348 9.92624 31.4827 9.95639 31.7382C10.0274 32.3418 10.0961 32.9458 10.1642 33.5498C10.3716 33.5013 10.5791 33.4529 10.7928 33.403C13.6056 32.8128 16.3451 32.7933 19.2083 32.8296C19.6811 32.833 20.1539 32.8361 20.6268 32.8389C21.7708 32.8468 22.9147 32.8579 24.0587 32.872C23.8722 34.0463 23.7073 34.584 22.9996 35.5831C22.1724 36.648 22.1724 36.648 22.7031 38.2942C23.1504 39.4125 23.5978 40.5309 24.0587 41.6831C20.3682 41.6831 16.6777 41.6831 12.8753 41.6831C12.8753 40.7884 12.8753 39.8938 12.8753 38.972C14.1772 38.1018 15.5234 38.2173 17.0267 38.2518C17.2792 38.2549 17.5317 38.258 17.7919 38.2611C18.4123 38.2691 19.0327 38.2812 19.6531 38.2942C19.4854 37.12 19.4854 37.12 19.3142 35.922C16.7651 35.82 13.4869 35.7856 11.1809 36.9386C11.2425 37.3369 11.3041 37.7351 11.3675 38.1454C11.5967 39.6299 11.8235 41.1149 12.0496 42.5999C12.1476 43.2413 12.2462 43.8825 12.3455 44.5237C12.4885 45.448 12.6292 46.3726 12.7694 47.2973C12.8139 47.5815 12.8584 47.8658 12.9042 48.1587C13.1429 49.7486 13.2595 51.2587 13.2142 52.8664C12.2077 52.8664 11.2012 52.8664 10.1642 52.8664C9.66941 51.0013 9.30654 49.1688 9.0496 47.2575C8.99462 46.8607 8.99463 46.8607 8.93854 46.4559C8.86211 45.9021 8.7864 45.3482 8.71137 44.7942C8.59635 43.9456 8.47897 43.0973 8.36123 42.249C8.28696 41.7087 8.21283 41.1684 8.13884 40.628C8.1039 40.3749 8.06896 40.1218 8.03297 39.861C7.90041 38.8777 7.79201 37.9322 7.79201 36.9386C7.49145 36.8548 7.1909 36.7709 6.88124 36.6845C5.52829 36.1739 4.38935 35.5556 3.72534 34.2275C3.49713 32.8352 3.45931 31.6467 4.16748 30.3978C4.6764 29.7318 5.2103 29.0999 5.75867 28.4664C6.2836 27.4166 6.04076 26.3442 5.9493 25.2046C5.93161 24.9652 5.91391 24.7258 5.89568 24.4792C5.85173 23.8878 5.80542 23.2965 5.75867 22.7053C7.10572 22.4542 8.37924 22.3237 9.74881 22.3226ZM6.77534 30.8386C5.92812 31.9662 5.92812 31.9662 5.86458 33.3168C5.94146 33.5055 6.01835 33.6942 6.09756 33.8886C6.76856 34.0564 6.76856 34.0564 7.45312 34.2275C7.34128 33.1092 7.22945 31.9909 7.11423 30.8386C7.00239 30.8386 6.89056 30.8386 6.77534 30.8386Z"/>
<path d="M51.5131 28.128C52.9393 28.734 53.7055 29.5347 54.5208 30.8391C55.4446 33.3026 55.3153 35.7796 55.3256 38.3794C55.3326 38.8149 55.3396 39.2504 55.3468 39.6992C55.3586 42.5799 55.1645 44.9365 53.61 47.4023C52.3897 48.5877 51.3423 49.0848 49.6493 49.2662C47.4741 49.0331 46.2715 48.0825 44.836 46.5312C43.5529 44.251 43.6084 41.5621 43.634 39.0148C43.6363 38.6865 43.6386 38.3582 43.6409 38.02C43.7312 31.785 43.7312 31.785 45.752 29.4835C47.4765 27.8853 49.2666 27.753 51.5131 28.128ZM49.1409 32.8724C48.3559 33.5103 48.3559 33.5103 48.3862 34.5604C48.3897 34.9828 48.3933 35.4052 48.397 35.8404C48.3979 36.0651 48.3989 36.2898 48.3999 36.5213C48.4037 37.2395 48.4122 37.9577 48.4208 38.6759C48.4242 39.1626 48.4273 39.6493 48.4301 40.136C48.4375 41.3297 48.4492 42.5233 48.4631 43.7169C48.9105 43.9405 49.3578 44.1642 49.8187 44.3946C50.1542 44.171 50.4897 43.9473 50.8354 43.7169C50.9884 42.6758 50.9884 42.6758 50.9585 41.4506C50.9586 41.2275 50.9588 41.0044 50.959 40.7745C50.9582 40.3028 50.9549 39.831 50.9493 39.3593C50.9413 38.6363 50.9423 37.9137 50.9446 37.1906C51.123 34.8302 51.123 34.8302 50.1576 32.8724C49.8221 32.8724 49.4866 32.8724 49.1409 32.8724Z"/>
<path d="M69.8125 28.8057C71.1545 28.8057 72.4965 28.8057 73.8792 28.8057C73.991 30.7069 74.1028 32.608 74.2181 34.5668C74.873 32.798 74.873 32.798 75.5259 31.0284C76.2137 29.1822 76.2137 29.1822 76.5903 28.8057C77.3877 28.781 78.1859 28.7773 78.9837 28.7845C79.421 28.7876 79.8583 28.7906 80.3088 28.7938C80.6473 28.7977 80.9859 28.8016 81.3347 28.8057C80.7311 30.8209 79.8042 32.6377 78.8467 34.5026C78.7263 34.7479 78.606 34.9932 78.482 35.2459C78.3709 35.4654 78.2599 35.685 78.1455 35.9112C77.6778 37.525 78.5759 39.1785 79.1333 40.684C79.2155 40.9073 79.2978 41.1305 79.3825 41.3606C79.6438 42.0687 79.9068 42.7763 80.1698 43.4838C80.348 43.9658 80.526 44.4479 80.7039 44.93C81.1386 46.1077 81.5756 47.2844 82.0125 48.4612C80.4468 48.4612 78.8812 48.4612 77.2681 48.4612C75.5434 44.331 75.5434 44.331 74.8958 42.7001C74.784 42.7001 74.6722 42.7001 74.5569 42.7001C74.4451 44.6013 74.3333 46.5025 74.2181 48.4612C72.7642 48.4612 71.3104 48.4612 69.8125 48.4612C69.8125 41.9749 69.8125 35.4886 69.8125 28.8057Z"/>
<path d="M90.8219 28.4664C92.1801 29.0753 92.6737 29.5497 93.4907 30.7751C93.9191 31.9891 93.9486 32.9493 93.8719 34.2275C92.5299 34.2275 91.1879 34.2275 89.8052 34.2275C89.6934 34.0039 89.5816 33.7802 89.4664 33.5498C89.019 33.5498 88.5717 33.5498 88.1108 33.5498C88.36 35.0134 89.0183 35.5343 90.1269 36.4502C91.0272 37.0829 91.9667 37.5065 92.9903 37.9037C93.533 38.2942 93.533 38.2942 93.7753 39.0236C93.8928 40.1971 93.9296 41.3507 93.9355 42.5303C93.9403 42.9672 93.9451 43.404 93.95 43.8541C93.8442 45.5043 93.5872 46.4036 92.3681 47.5289C90.6261 48.7186 88.7981 48.6691 86.7552 48.4609C85.2672 47.9443 84.1835 47.0996 83.3664 45.7498C83.236 44.6029 83.3206 43.5198 83.3664 42.3609C84.7084 42.3609 86.0504 42.3609 87.433 42.3609C87.5449 42.5845 87.6567 42.8082 87.7719 43.0386C88.3311 43.0386 88.8902 43.0386 89.4664 43.0386C89.6083 42.2488 89.6083 42.2488 89.4664 41.3442C88.604 40.4565 87.945 40.0391 86.7552 39.6921C85.2349 39.122 84.4343 38.0578 83.7052 36.5998C83.3919 33.771 83.7364 31.4962 85.3997 29.1442C87.0559 28.0401 88.8862 28.2759 90.8219 28.4664Z"/>
<path d="M32.5312 28.4668C35.5508 28.4668 38.5703 28.4668 41.6812 28.4668C41.6812 29.9206 41.6812 31.3745 41.6812 32.8724C40.0037 32.8724 38.3263 32.8724 36.5979 32.8724C36.5979 34.1025 36.5979 35.3327 36.5979 36.6001C37.9399 36.6001 39.2819 36.6001 40.6646 36.6001C40.6646 37.8303 40.6646 39.0605 40.6646 40.3279C39.3226 40.3279 37.9806 40.3279 36.5979 40.3279C36.5979 43.0119 36.5979 45.6959 36.5979 48.4612C35.2559 48.4612 33.9139 48.4612 32.5312 48.4612C32.5312 41.8631 32.5312 35.2649 32.5312 28.4668Z"/>
<path d="M57.9531 28.1279C59.407 28.1279 60.8608 28.1279 62.3587 28.1279C62.3587 33.3841 62.3587 38.6403 62.3587 44.0557C63.9243 44.0557 65.49 44.0557 67.1031 44.0557C67.1031 45.6214 67.1031 47.187 67.1031 48.8002C64.0836 48.8002 61.0641 48.8002 57.9531 48.8002C57.9531 41.9783 57.9531 35.1565 57.9531 28.1279Z"/>
</svg>
