<svg fill="currentColor" width="98" height="76" viewBox="0 0 98 76" xmlns="http://www.w3.org/2000/svg">
<path d="M87.562 25.7981C90.5975 27.9728 92.895 30.9241 93.8712 34.5669C94.2253 38.6965 93.935 42.2276 91.4142 45.6655C87.9987 49.7066 83.3014 52.39 77.9868 52.9738C76.9884 53.0267 75.9991 53.0427 74.9993 53.0363C74.6451 53.0344 74.291 53.0324 73.926 53.0304C68.625 52.9093 63.6257 51.1522 59.7917 47.3599C59.4003 46.9391 59.0117 46.5158 58.6267 46.0891C58.2898 45.7483 57.9515 45.4087 57.6101 45.0724C57.5821 45.3101 57.5542 45.5477 57.5253 45.7926C56.9008 48.1868 55.4412 49.2533 53.4852 50.6257C50.7943 52.1607 48.5999 52.33 45.5477 52.2884C45.1907 52.2873 44.8337 52.2863 44.4659 52.2853C43.1426 52.28 41.8194 52.2658 40.4962 52.2526C37.5326 52.2317 34.569 52.2107 31.5156 52.1891C31.5156 42.5714 31.5156 32.9538 31.5156 23.0446C34.4513 23.0097 37.3869 22.9747 40.4115 22.9387C41.3298 22.9233 42.2482 22.9079 43.1944 22.892C43.9347 22.887 44.675 22.8827 45.4154 22.8792C45.7897 22.8705 46.164 22.8618 46.5497 22.8529C50.0844 22.8509 53.2402 23.9597 56.0202 26.1767C57.0406 27.2371 57.6746 28.4957 58.2878 29.8224C58.4198 29.6542 58.5517 29.486 58.6876 29.3128C65.7129 20.7821 78.5638 20.1407 87.562 25.7981ZM41.0045 29.8224C41.0045 31.2763 41.0045 32.7301 41.0045 34.228C41.8804 34.2646 42.7547 34.2915 43.6309 34.3127C44.0018 34.3297 44.0018 34.3297 44.3802 34.3471C45.5969 34.3692 46.2795 34.3384 47.2673 33.5979C47.8335 32.899 47.8335 32.8991 47.9729 32.0252C47.8456 31.1194 47.8456 31.1194 47.0886 30.4525C45.845 29.6695 44.8583 29.6671 43.4403 29.7377C43.2055 29.7438 42.9707 29.7499 42.7287 29.7562C42.1538 29.7721 41.5791 29.7964 41.0045 29.8224ZM67.099 33.5502C65.9651 34.984 65.4366 36.4648 65.4045 38.2946C65.827 40.346 66.8916 42.0004 68.4545 43.378C71.252 45.1567 74.165 45.4558 77.4245 44.94C80.0307 44.2242 81.9869 42.4579 83.408 40.2009C83.868 38.295 83.8813 36.6043 82.9817 34.8237C81.4943 32.6698 79.5929 31.3519 77.0538 30.7332C73.3918 30.0855 69.7778 30.8524 67.099 33.5502ZM53.8823 36.9391C53.6586 37.1628 53.435 37.3864 53.2045 37.6169C54.0992 38.2879 54.9938 38.9589 55.9156 39.6502C55.9156 38.3082 55.9156 36.9662 55.9156 35.5835C55.1659 35.5835 54.4264 36.4879 53.8823 36.9391ZM41.3434 40.6669C41.3434 42.1207 41.3434 43.5745 41.3434 45.0724C42.156 45.1184 42.9659 45.1518 43.7792 45.1783C44.0074 45.1925 44.2357 45.2067 44.4708 45.2213C45.8185 45.2542 46.3685 45.1184 47.4394 44.2742C48.2109 43.4476 48.2109 43.4476 48.1212 42.4884C47.7406 41.5845 47.5693 41.229 46.7656 40.6669C45.8129 40.5933 44.9396 40.571 43.991 40.6033C43.6099 40.6102 43.6099 40.6102 43.2212 40.6172C42.5952 40.6292 41.9692 40.6474 41.3434 40.6669Z"/>
<path d="M3.72656 23.3838C6.96973 23.3838 10.2129 23.3838 13.5543 23.3838C13.5543 26.7388 13.5543 30.0938 13.5543 33.5505C15.6792 33.5505 17.804 33.5505 19.9932 33.5505C19.9932 30.1955 19.9932 26.8405 19.9932 23.3838C23.1246 23.3838 26.2559 23.3838 29.4821 23.3838C29.4821 32.8896 29.4821 42.3955 29.4821 52.1893C26.3508 52.1893 23.2195 52.1893 19.9932 52.1893C19.9932 48.4988 19.9932 44.8083 19.9932 41.006C17.8684 41.006 15.7436 41.006 13.5543 41.006C13.5543 44.6965 13.5543 48.387 13.5543 52.1893C10.3112 52.1893 7.06801 52.1893 3.72656 52.1893C3.72656 42.6835 3.72656 33.1777 3.72656 23.3838Z"/>
<path d="M80.6567 33.55C81.671 34.5643 82.3334 35.5448 82.69 36.9389C82.6195 39.1601 82.1385 40.5499 80.5137 42.1612C78.2505 44.162 76.0419 44.2332 73.1654 44.1615C70.4197 43.9412 68.8706 42.6951 67.1011 40.6667C66.4886 38.8292 66.3883 36.7376 67.2706 34.9691C68.461 33.1981 70.2903 32.2687 72.3115 31.7285C75.41 31.1811 78.0304 31.8376 80.6567 33.55Z"/>
</svg>
