<svg fill="currentColor" width="98" height="76" viewBox="0 0 98 76" xmlns="http://www.w3.org/2000/svg">
<path d="M6.80305 26.9707H6.18775V52.2914H3.72656V22.9424H7.41835L18.4937 48.8386H19.7243L30.1844 22.9424H33.8761V52.2914H32.0303V26.3952H30.7997L19.7243 51.716H17.8784L6.80305 26.9707Z"/>
<path d="M93.865 31.5738H91.7115C90.7886 26.97 87.0968 24.3804 82.482 24.0926C76.8212 24.3228 73.9704 29.176 73.2527 31.5738V43.6587C74.7909 48.2624 78.175 49.9888 82.482 50.8521C88.9427 49.7011 91.6089 45.7687 91.7115 43.6587H93.865C93.2496 48.2624 88.6351 52.8662 82.482 52.8662C73.6216 52.8662 70.9964 45.7687 70.7913 42.22V37.3285C70.5452 31.3436 71.7143 28.5046 72.3296 27.8332C73.15 26.1068 76.329 22.5964 82.482 22.3662C91.8345 22.8266 93.9676 28.6964 93.865 31.5738Z"/>
<path fill-rule="evenodd" clip-rule="evenodd" d="M43.7188 22.9424H57.8706C60.3318 23.5179 65.2542 25.3585 65.2542 31.5745C65.2542 36.466 60.3318 40.2065 57.8706 40.2065H45.5646V52.2914H43.7188V22.9424ZM45.5641 24.6688H57.8701C59.7159 25.532 63.1001 28.1216 63.1001 31.5744C63.1001 35.0273 59.7159 37.6169 57.8701 38.4801H45.5641V24.6688Z"/>
</svg>
