<svg fill="currentColor" width="98" height="76" viewBox="0 0 98 76" xmlns="http://www.w3.org/2000/svg">
<path d="M77.7112 22.3662H73.3594V50.9111H77.7112V22.3662Z"/>
<path d="M12.1193 38.3983L7.45668 22.3662H3.72656V52.8662L7.45668 52.0842V36.4431L12.1193 52.0842L16.1603 51.3021V22.3662H12.4302L12.1193 38.3983Z"/>
<path d="M30.4593 22.3662H19.8906V50.9111L30.4593 49.738V45.0457H23.6207V38.7893H29.2159V33.3149H23.6207V27.8406H30.4593V22.3662Z"/>
<path d="M44.7573 22.3662H32.9453V27.0585H36.6754V49.347L40.7164 48.956V27.0585H44.7573V22.3662Z"/>
<path d="M47.2422 48.956V22.3662H57.8108V27.0585H50.9723V33.3149H55.9458V38.0072H50.9723V48.956H47.2422Z"/>
<path d="M64.0348 22.3662H60.3047V50.129L70.2517 49.738V44.6547L64.0348 44.2636V22.3662Z"/>
<path d="M84.858 22.3662H80.817L84.858 36.8342L80.1953 50.9111H84.5471L86.723 43.8726H87.3447L89.5206 51.6931L93.8724 52.4752V50.9111L89.2098 36.8342L93.8724 22.3662H90.1423L87.3447 29.4047L84.858 22.3662Z"/>
</svg>
