<svg fill="currentColor" width="98" height="76" viewBox="0 0 98 76" xmlns="http://www.w3.org/2000/svg">
<path d="M57.2759 4.55946C58.1301 4.70361 58.9851 4.84177 59.8404 4.97894C60.3938 5.06906 60.9472 5.1595 61.5005 5.25031C61.7511 5.29129 62.0018 5.33227 62.2601 5.37449C63.8991 5.65202 65.5089 5.96221 67.1027 6.43907C67.5475 7.28497 67.5475 7.28497 67.7805 8.28178C68.1151 9.31995 68.1151 9.31995 68.7972 10.1668C70.2119 10.6507 71.5149 10.8443 72.9935 10.9929C74.2194 11.1835 74.2194 11.1835 74.8521 11.5859C75.3759 12.4239 75.6406 13.2879 75.9138 14.2335C76.2895 14.299 76.6652 14.3646 77.0523 14.4321C77.5483 14.5211 78.0442 14.6102 78.5402 14.6995C78.9111 14.7637 78.9111 14.7637 79.2895 14.8292C80.5363 15.0559 81.5788 15.3283 82.6916 15.928C82.9063 29.8149 82.9063 29.8149 81.6749 35.2446C81.6186 35.5085 81.5622 35.7723 81.5042 36.0442C79.8505 43.6388 76.4963 49.643 71.5083 55.578C71.2689 55.8929 71.0295 56.2079 70.7828 56.5324C70.4709 56.8987 70.4709 56.8987 70.1527 57.2724C69.929 57.2724 69.7054 57.2724 69.4749 57.2724C69.3631 57.6079 69.2513 57.9434 69.136 58.2891C68.9124 58.2891 68.6887 58.2891 68.4583 58.2891C68.3779 58.483 68.2975 58.677 68.2147 58.8768C67.687 59.81 67.0604 60.3793 66.2555 61.0849C65.9864 61.3243 65.7173 61.5637 65.44 61.8103C64.7305 62.3557 64.7305 62.3557 64.0527 62.3557C64.0527 62.5794 64.0527 62.8031 64.0527 63.0335C58.0111 68.1168 58.0111 68.1168 55.9194 68.1168C55.9194 68.3405 55.9194 68.5642 55.9194 68.7946C55.026 69.2541 54.1296 69.7042 53.2294 70.1502C52.9802 70.2795 52.731 70.4088 52.4742 70.542C50.4541 71.53 48.6173 72.0015 46.4213 71.28C45.7207 70.9672 45.0631 70.6159 44.3972 70.2349C44.0297 70.0324 44.0297 70.0324 43.6549 69.8259C41.0619 68.3597 38.6438 66.6501 36.2512 64.8805C35.611 64.4075 34.9664 63.9409 34.3205 63.4757C32.2509 61.9677 32.2509 61.9677 31.5194 61.3391C31.5194 61.1154 31.5194 60.8917 31.5194 60.6613C31.1839 60.5495 30.8484 60.4376 30.5027 60.3224C30.5027 60.0987 30.5027 59.8751 30.5027 59.6446C30.3105 59.5616 30.1183 59.4786 29.9202 59.3931C23.477 55.8405 19.0105 46.544 17.0448 39.8446C16.8046 38.9843 16.5762 38.1219 16.3541 37.2568C16.2868 36.9973 16.2194 36.7378 16.1501 36.4704C15.0589 31.99 14.7949 27.5465 14.8068 22.9575C14.8079 22.0772 14.7998 21.1972 14.7914 20.317C14.7906 19.7555 14.7904 19.194 14.7907 18.6325C14.7876 18.3702 14.7845 18.108 14.7812 17.8378C14.7876 17.1064 14.7876 17.1064 14.9138 15.928C15.8552 15.3004 16.23 15.1369 17.29 14.9616C17.675 14.8961 17.675 14.8961 18.0677 14.8292C18.334 14.7864 18.6003 14.7436 18.8746 14.6995C19.2799 14.6313 19.2799 14.6313 19.6933 14.5618C20.3591 14.4502 21.0253 14.3416 21.6916 14.2335C21.7825 13.919 21.8733 13.6045 21.9669 13.2804C22.3562 12.2355 22.549 11.8626 23.386 11.1835C24.0303 10.9748 24.0303 10.9748 24.7456 10.8618C25.0022 10.8192 25.2589 10.7766 25.5233 10.7328C25.7896 10.6928 26.0558 10.6528 26.3301 10.6116C26.6003 10.5677 26.8705 10.5238 27.1489 10.4786C27.8144 10.371 28.4807 10.2684 29.1472 10.1668C29.2087 9.95847 29.2703 9.75009 29.3338 9.5354C29.4616 9.12455 29.4616 9.12455 29.5919 8.70539C29.6745 8.43411 29.7571 8.16282 29.8421 7.88332C30.1925 7.0486 30.4905 6.67708 31.1805 6.10018C31.8323 5.88786 31.8323 5.88786 32.5787 5.767C32.8596 5.71958 33.1406 5.67217 33.43 5.62331C33.7339 5.57667 34.0378 5.53003 34.351 5.48197C34.6676 5.43076 34.9843 5.37954 35.3106 5.32678C35.9834 5.21912 36.6566 5.11357 37.33 5.00996C38.3425 4.85334 39.3533 4.688 40.3642 4.52157C46.1842 3.58782 51.4604 3.57799 57.2759 4.55946ZM45.2351 9.23226C44.9552 9.27578 44.6753 9.31931 44.3869 9.36415C43.7958 9.45648 43.2047 9.54938 42.6138 9.6428C41.712 9.78484 40.8098 9.92364 39.9075 10.0623C39.3323 10.1525 38.7571 10.243 38.182 10.3336C37.9133 10.3746 37.6446 10.4156 37.3678 10.4578C36.0223 10.6738 34.7813 10.8994 33.5527 11.5224C33.2592 12.1358 33.2592 12.1358 33.1079 12.8356C32.7942 13.5729 32.7942 13.5729 32.1972 14.2335C31.0432 14.601 29.9499 14.8668 28.7536 15.0362C27.9384 15.155 27.9384 15.155 26.7749 15.5891C26.3687 16.1337 26.3687 16.1337 26.0786 16.7792C25.4194 17.9613 25.4194 17.9613 24.273 18.3796C23.8545 18.4373 23.436 18.4949 23.0048 18.5543C21.7619 18.7185 21.7619 18.7185 20.6749 18.978C19.9651 20.0426 19.9106 20.2961 19.9071 21.5104C19.9057 21.812 19.9042 22.1137 19.9028 22.4245C19.9059 22.748 19.9091 23.0714 19.9124 23.4047C19.915 23.7397 19.9175 24.0748 19.9201 24.42C20.0448 33.0801 21.4564 43.993 27.7889 50.5118C28.0135 50.7298 28.238 50.9478 28.4694 51.1724C28.8616 51.6138 29.25 52.0585 29.6343 52.5068C30.5626 53.5756 31.5212 54.5899 32.536 55.578C32.8366 55.8925 33.1371 56.207 33.4468 56.5311C34.1328 57.35 34.1328 57.35 34.9083 57.2724C35.0201 57.6079 35.1319 57.9434 35.2472 58.2891C36.1403 59.1058 36.1403 59.1058 37.2805 59.3057C37.2805 59.5294 37.2805 59.7531 37.2805 59.9835C42.7672 64.4083 42.7672 64.4083 49.1072 66.3589C52.8525 65.3777 55.9888 63.0319 58.9694 60.6613C59.4693 60.2853 59.9704 59.9109 60.4732 59.5387C62.1142 58.3046 63.6326 57.0506 65.0694 55.578C65.3769 55.2844 65.6845 54.9908 66.0013 54.6884C66.8282 53.9291 66.8282 53.9291 67.1027 52.8668C67.5546 52.6409 68.0064 52.415 68.4583 52.1891C69.2793 51.2963 69.2793 51.2963 69.4749 50.1557C69.8104 50.0439 70.1459 49.9321 70.4916 49.8168C76.2063 42.6908 77.5917 32.5887 77.6718 23.7436C77.6763 23.43 77.6807 23.1165 77.6853 22.7934C77.6856 22.4958 77.686 22.1982 77.6864 21.8916C77.6878 21.6243 77.6892 21.357 77.6906 21.0815C77.5965 20.2269 77.4088 19.6922 76.9305 18.978C75.7365 18.6712 74.5542 18.5271 73.3324 18.3677C71.9605 17.8813 71.8272 17.4033 71.2169 16.138C70.8076 15.4422 70.8076 15.4422 69.5597 15.1562C69.0806 15.075 68.6004 15.0006 68.1194 14.9325C65.6125 14.4595 65.6125 14.4595 64.8112 13.5729C64.4975 12.8356 64.4975 12.8356 64.3241 12.134C64.1006 11.4566 64.1006 11.4566 63.372 11.1772C62.0695 10.7499 60.7762 10.54 59.4234 10.3336C59.1432 10.2895 58.863 10.2453 58.5743 10.1998C57.984 10.1072 57.3935 10.0155 56.8029 9.92476C55.8997 9.78584 54.9971 9.64366 54.0945 9.50098C53.5198 9.41122 52.9451 9.32163 52.3703 9.23226C52.1009 9.18991 51.8316 9.14756 51.554 9.10392C49.3493 8.76724 47.4228 8.88832 45.2351 9.23226Z"/>
<path d="M47.7861 13.5557C47.7861 29.6597 47.7861 45.7637 47.7861 62.3557C45.2252 61.8435 43.9255 60.1593 42.4009 58.1023C39.587 53.8244 37.705 49.1665 35.925 44.3946C35.0541 45.2482 34.2539 46.0571 33.5316 47.0421C33.3149 47.2868 33.0982 47.5314 32.875 47.7834C32.4276 47.7834 31.9803 47.7834 31.5194 47.7834C27.1256 40.847 25.3463 32.8621 24.7416 24.739C24.7006 24.3161 24.6595 23.8933 24.6172 23.4576C24.7416 22.3668 24.7416 22.3668 25.4856 21.64C25.977 21.3602 25.977 21.3602 26.4784 21.0748C26.8008 20.8839 27.1232 20.693 27.4554 20.4963C28.4547 20.0018 29.4372 19.6409 30.5027 19.3168C30.5154 19.7519 30.5281 20.187 30.5411 20.6353C30.7477 26.5694 31.3668 32.2925 33.2138 37.9557C33.5493 37.7879 33.5493 37.7879 33.8916 37.6168C33.8429 36.7907 33.7934 35.9647 33.7434 35.1386C33.73 34.9113 33.7167 34.6839 33.703 34.4496C33.6223 33.1284 33.5126 31.8165 33.3727 30.5001C33.1344 27.9411 33.1775 25.3786 33.1927 22.8116C33.1944 22.3061 33.1959 21.8006 33.1973 21.2952C33.201 20.0709 33.2068 18.8466 33.2138 17.6223C35.12 16.5826 36.8379 15.965 38.975 15.589C38.985 15.969 38.985 15.969 38.9953 16.3567C39.2599 29.1218 39.2599 29.1218 41.3472 41.6834C41.459 32.6249 41.5708 23.5664 41.6861 14.2334C45.7527 13.5557 45.7527 13.5557 47.7861 13.5557Z"/>
<path d="M50.8315 13.5557C55.615 14.0573 60.1092 15.8513 64.387 17.9612C64.8818 18.2024 64.8818 18.2024 65.3865 18.4484C67.9442 19.7611 70.1726 21.3226 71.8638 23.68C72.4108 25.5032 72.5568 27.1933 71.836 28.9883C71.1831 30.1994 70.525 31.2926 69.4704 32.1946C69.2467 32.1946 69.023 32.1946 68.7926 32.1946C68.7926 32.4182 68.7926 32.6419 68.7926 32.8723C68.1279 33.3432 67.45 33.7962 66.7593 34.2279C67.0808 34.5284 67.4023 34.829 67.7336 35.1386C69.1067 36.5345 69.501 37.6131 69.5763 39.5654C69.4592 44.2263 66.6049 48.0763 63.7093 51.5112C63.4725 51.8231 63.2357 52.135 62.9918 52.4564C62.7812 52.7037 62.5707 52.9509 62.3537 53.2057C62.13 53.2057 61.9064 53.2057 61.6759 53.2057C61.5488 53.5045 61.5488 53.5045 61.4191 53.8093C60.9425 54.6607 60.4334 55.126 59.685 55.7473C58.9118 56.3986 58.1888 57.0343 57.4822 57.7595C56.9315 58.289 56.9315 58.289 56.2537 58.289C56.2537 58.5127 56.2537 58.7363 56.2537 58.9668C55.4387 59.5783 54.6261 60.1459 53.7756 60.7036C53.4247 60.9414 53.4247 60.9414 53.0667 61.1841C52.8406 61.334 52.6146 61.4838 52.3816 61.6382C52.174 61.7758 51.9664 61.9135 51.7524 62.0553C51.1704 62.3557 51.1704 62.3557 50.1537 62.3557C50.1379 56.093 50.1259 49.8304 50.1186 43.5677C50.1151 40.66 50.1103 37.7523 50.1026 34.8446C50.0958 32.311 50.0915 29.7773 50.0899 27.2437C50.0891 25.9015 50.087 24.5593 50.0821 23.2171C50.0775 21.9549 50.076 20.6926 50.077 19.4304C50.0769 18.9662 50.0755 18.5019 50.0729 18.0377C50.0696 17.4058 50.0708 16.7738 50.0722 16.1419C50.0716 15.7876 50.071 15.4334 50.0703 15.0684C50.1537 14.2334 50.1537 14.2334 50.8315 13.5557ZM56.2537 20.6723C56.2537 24.922 56.2537 29.1717 56.2537 33.5501C57.4839 32.8791 58.714 32.2081 59.9815 31.5168C59.9815 31.2931 59.9815 31.0694 59.9815 30.839C60.2209 30.7542 60.4603 30.6695 60.7069 30.5822C61.7883 30.1124 62.6665 29.5342 63.6245 28.848C64.1147 28.5034 64.1147 28.5034 64.6147 28.1517C65.4293 27.5272 65.4293 27.5272 65.7055 26.7485C65.7872 26.0198 65.7872 26.0198 65.4037 25.0779C63.8901 23.4768 61.8583 22.6025 59.8756 21.7314C59.6364 21.6262 59.3972 21.521 59.1507 21.4127C58.1344 20.9814 57.3688 20.6723 56.2537 20.6723ZM55.9148 39.6501C55.8848 40.529 55.8758 41.3989 55.8817 42.2778C55.8822 42.5406 55.8827 42.8034 55.8832 43.0742C55.8851 43.9167 55.8893 44.7593 55.8936 45.6018C55.8953 46.1717 55.8969 46.7416 55.8983 47.3115C55.902 48.7114 55.9079 50.1113 55.9148 51.5112C56.6061 51.0492 56.6061 51.0492 57.2704 50.4946C57.2704 50.2709 57.2704 50.0472 57.2704 49.8168C57.494 49.8168 57.7177 49.8168 57.9482 49.8168C57.9482 49.5931 57.9482 49.3694 57.9482 49.139C58.4514 48.9712 58.4514 48.9712 58.9648 48.8001C59.5745 47.9988 60.1324 47.2059 60.6804 46.3643C60.8318 46.1405 60.9832 45.9166 61.1391 45.6859C62.4241 43.7402 63.1941 42.0352 63.0315 39.6501C62.9197 39.4264 62.8078 39.2028 62.6926 38.9723C62.4689 38.9723 62.2453 38.9723 62.0148 38.9723C62.0148 38.7487 62.0148 38.525 62.0148 38.2946C59.9724 37.7617 57.4927 38.0722 55.9148 39.6501Z"/>
</svg>
