<svg width="48" height="48" viewBox="0 0 48 48" fill="none" xmlns="http://www.w3.org/2000/svg">
<rect width="48" height="48" rx="8" fill="#050505"/>
<path d="M13.0286 27.7778C11.6145 27.7778 10.4198 27.1926 9.44457 26.0222C8.48152 24.837 8 23.4222 8 21.7778V14C8 12.3556 8.48152 10.9481 9.44457 9.77778C10.4198 8.59259 11.6145 8 13.0286 8H34.9714C36.3855 8 37.5741 8.59259 38.5371 9.77778C39.5124 10.9481 40 12.3556 40 14V15.5556H16.6857C16.3322 15.5556 16.0152 15.7259 15.7349 16.0667C15.4545 16.4074 15.3143 16.8296 15.3143 17.3333V18.4444C15.3143 18.9481 15.4545 19.3704 15.7349 19.7111C16.0152 20.0519 16.3322 20.2222 16.6857 20.2222H34.9714C36.3855 20.2222 37.5741 20.8148 38.5371 22C39.5124 23.1704 40 24.5778 40 26.2222V34C40 35.6444 39.5124 37.0593 38.5371 38.2444C37.5741 39.4148 36.3855 40 34.9714 40H13.0286C11.6145 40 10.4198 39.4148 9.44457 38.2444C8.48152 37.0593 8 35.6444 8 34V32.4444H31.3143C31.6678 32.4444 31.9848 32.2741 32.2651 31.9333C32.5455 31.5926 32.6857 31.1704 32.6857 30.6667V29.5556C32.6857 29.0519 32.5455 28.6296 32.2651 28.2889C31.9848 27.9481 31.6678 27.7778 31.3143 27.7778H13.0286Z" fill="white"/>
</svg>
