<svg width="24" height="24" viewBox="0 0 24 24" fill="none" xmlns="http://www.w3.org/2000/svg">
<path d="M19.9006 5.86965C18.6241 4.2246 16.866 3.01902 14.8715 2.42113C12.8769 1.82324 10.7455 1.86285 8.77462 2.53443C6.8037 3.20602 5.09158 4.47609 3.87712 6.16743C2.66267 7.85878 2.00646 9.88703 2.00005 11.9692C1.99364 14.0514 2.63735 16.0837 3.84137 17.7825C5.04539 19.4812 6.74967 20.7618 8.71642 21.4455C10.6832 22.1292 12.8143 22.182 14.8124 21.5964C16.8106 21.0108 18.5761 19.816 19.8627 18.1789L16.1472 15.259C15.4686 16.1226 14.5373 16.7527 13.4834 17.0616C12.4295 17.3705 11.3054 17.3427 10.2681 16.982C9.23071 16.6214 8.33179 15.946 7.69673 15.05C7.06167 14.1539 6.72215 13.082 6.72553 11.9838C6.72891 10.8855 7.07502 9.81571 7.71559 8.92361C8.35615 8.03151 9.25921 7.36162 10.2988 7.00739C11.3383 6.65316 12.4625 6.63227 13.5145 6.94763C14.5666 7.26298 15.4939 7.89886 16.1671 8.76655L19.9006 5.86965Z" fill="white"/>
<circle cx="11.9987" cy="11.9997" r="3.7409" fill="white"/>
</svg>
