<svg fill="currentColor" width="98" height="76" viewBox="0 0 98 76" xmlns="http://www.w3.org/2000/svg">
<path d="M66.6886 12.3154C68.7669 13.8677 70.0474 15.8347 70.8307 18.3002C71.0325 19.7102 71.0511 21.0924 71.0425 22.5151C71.0535 22.877 71.0644 23.239 71.0756 23.6119C71.0793 26.6053 70.1778 28.5806 68.2203 30.8221C66.2342 32.7446 64.3517 33.3341 61.6807 34.5668C71.7457 34.7346 71.7457 34.7346 82.0141 34.9057C82.0141 35.4649 82.0141 36.0241 82.0141 36.6002C81.6786 36.6002 81.3431 36.6002 80.9974 36.6002C80.9345 36.8238 80.8716 37.0475 80.8068 37.278C80.327 38.2792 79.877 38.7819 79.1123 39.5655C77.7663 41.0288 77.6391 42.0971 77.6085 44.0557C76.4902 44.0557 75.3718 44.0557 74.2196 44.0557C74.2196 43.5665 74.2196 43.0772 74.2196 42.5731C74.0375 40.5443 73.0822 39.4452 71.7508 37.9663C71.1696 37.278 71.1696 37.278 71.1696 36.6002C55.8484 36.712 40.5273 36.8238 24.7418 36.9391C25.301 37.2746 25.8602 37.6101 26.4363 37.9557C25.8432 39.2689 25.8432 39.2689 25.0807 39.6502C24.4003 39.6502 23.7198 39.6495 23.0395 39.6396C22.3208 39.651 21.6961 39.7617 21.0141 39.9891C20.9022 40.4364 20.7904 40.8837 20.6752 41.3446C21.84 41.927 23.0399 41.7742 24.2759 41.4505C25.0807 41.3446 25.0807 41.3446 25.8644 41.7471C26.4363 42.3613 26.4363 42.3613 26.4363 43.7169C23.7161 44.6236 21.3568 44.6218 18.6418 43.7169C17.8502 43.0673 17.4017 42.5921 16.9474 41.6835C16.8013 39.0542 16.8013 39.0542 17.6252 37.9557C18.1843 37.6202 18.7435 37.2847 19.3196 36.9391C17.8658 36.8272 16.412 36.7154 14.9141 36.6002C14.9141 36.041 14.9141 35.4818 14.9141 34.9057C34.2053 34.738 34.2053 34.738 53.8863 34.5668C52.5443 33.8958 51.2023 33.2248 49.8196 32.5335C47.5039 30.7225 45.0885 28.7244 44.5412 25.6913C44.4632 24.4709 44.4588 23.2717 44.4821 22.0491C44.4743 21.6387 44.4664 21.2283 44.4583 20.8054C44.4764 18.017 44.9886 16.0713 46.7696 13.8946C52.016 8.75491 60.6456 8.41757 66.6886 12.3154ZM52.2858 17.8249C50.9078 19.3379 51.3144 21.9346 51.3565 23.8548C51.4384 25.1405 51.589 25.9597 52.5095 26.9207C53.1606 27.4106 53.1606 27.4106 53.8863 27.7891C54.1231 27.9363 54.3598 28.0835 54.6038 28.2352C56.5168 29.2666 58.2421 29.4132 60.3252 28.8057C61.5387 28.2348 62.641 27.5763 63.7141 26.7724C63.9657 26.5881 64.2173 26.4037 64.4766 26.2138C65.3719 25.0106 65.3014 23.895 65.2814 22.4304C65.2788 22.1551 65.2762 21.8799 65.2736 21.5962C65.2191 20.1404 65.1579 19.0012 64.2012 17.8342C63.6468 17.3382 63.6468 17.3382 63.0363 16.9446C62.8528 16.8048 62.6693 16.665 62.4803 16.521C59.1269 14.2645 55.1119 15.2116 52.2858 17.8249ZM73.8807 36.6002C74.4399 37.1593 74.9991 37.7185 75.5752 38.2946C76.2529 38.0265 76.2529 38.0265 76.9307 37.6168C77.0426 37.2813 77.1544 36.9458 77.2696 36.6002C76.1513 36.6002 75.033 36.6002 73.8807 36.6002Z"/>
<path d="M40.3286 11.8615C41.6842 13.3403 42.362 14.9246 42.362 16.9448C41.6672 20.9747 38.9531 23.8473 35.9231 26.4337C34.5811 27.3284 33.2391 28.223 31.8564 29.1448C36.1061 29.2566 40.3558 29.3685 44.7342 29.4837C44.5105 30.0429 44.2869 30.602 44.0564 31.1781C43.9486 31.4735 43.8407 31.7689 43.7296 32.0733C43.2613 33.0967 42.8406 33.7869 42.0231 34.567C40.2799 35.0481 38.572 34.9626 36.7836 34.898C36.2698 34.8916 35.7561 34.8868 35.2423 34.8834C33.8946 34.8705 32.5481 34.8373 31.2009 34.7997C29.8244 34.765 28.4478 34.7496 27.0709 34.7325C24.3729 34.6962 21.6759 34.6384 18.9786 34.567C18.9461 33.8056 18.9228 33.0438 18.9034 32.2819C18.8825 31.6457 18.8825 31.6457 18.8611 30.9966C18.9924 29.6856 19.2178 29.2919 20.182 28.4286C20.7091 28.0517 21.2478 27.6906 21.7957 27.3445C22.3594 26.9494 22.9229 26.554 23.4861 26.1583C23.7607 25.9736 24.0354 25.7888 24.3183 25.5984C25.2969 24.9288 26.2001 24.2051 27.112 23.4472C27.3946 23.2131 27.6773 22.9789 27.9685 22.7377C30.8515 20.5313 30.8515 20.5313 32.8731 17.6226C32.3098 16.8389 31.8328 16.3468 30.8795 16.1055C28.3077 15.9304 26.0323 17.177 24.1229 18.8365C23.956 18.9951 23.7891 19.1536 23.6172 19.317C22.7064 19.9948 22.7064 19.9948 21.7957 19.8889C20.159 19.0551 18.544 18.1883 16.9453 17.2837C19.1734 13.4774 23.6593 10.2663 27.9168 9.12918C32.3032 8.27852 36.6819 9.17631 40.3286 11.8615Z"/>
<path d="M3.72656 57.9502C33.4742 57.9502 63.2219 57.9502 93.871 57.9502C93.871 58.9567 93.871 59.9632 93.871 61.0002C64.1233 61.0002 34.3757 61.0002 3.72656 61.0002C3.72656 59.9937 3.72656 58.9872 3.72656 57.9502Z"/>
<path d="M3.72656 63.0332C33.4742 63.0332 63.2219 63.0332 93.871 63.0332C93.871 63.9279 93.871 64.8225 93.871 65.7443C64.1233 65.7443 34.3757 65.7443 3.72656 65.7443C3.72656 64.8496 3.72656 63.955 3.72656 63.0332Z"/>
<path d="M46.2177 46.6183C46.5894 46.6208 46.9612 46.6234 47.3442 46.6261C51.0609 46.7016 54.1184 47.2697 57.1085 49.6259C57.9871 50.5483 58.2966 51.2307 58.2694 52.5065C57.6872 54.4086 56.3709 55.2356 54.6899 56.1495C49.8938 58.3924 43.9499 58.1175 38.974 56.5943C36.672 55.7083 35.051 54.7971 33.8906 52.5488C33.8906 51.3732 34.476 50.6396 35.2462 49.8165C38.4397 47.0858 42.1372 46.5788 46.2177 46.6183ZM43.0406 51.8499C43.2671 52.9098 43.2671 52.9098 44.0997 53.269C46.3083 53.8932 47.8314 53.5009 49.8184 52.5277C49.216 51.6787 48.7046 51.235 47.6898 50.9709C45.8412 50.7259 44.6511 50.7903 43.0406 51.8499Z"/>
<path d="M62.3526 36.9391C63.436 36.9182 64.5194 36.8972 65.6356 36.8756C66.1432 36.8617 66.1432 36.8617 66.6611 36.8475C69.5412 36.8206 69.5412 36.8206 70.8248 37.9558C71.2061 39.1207 71.2061 39.1207 71.1637 40.328C70.3377 41.1541 70.3377 41.1541 69.4693 41.6836C70.1403 42.2427 70.8113 42.8019 71.5026 43.378C70.7989 44.0035 70.2905 44.3637 69.3634 44.5641C68.0202 44.3143 67.1283 43.5458 66.0804 42.7003C65.9685 43.3713 65.8567 44.0423 65.7415 44.7336C71.3332 44.7336 76.9248 44.7336 82.6859 44.7336C82.6859 45.2928 82.6859 45.8519 82.6859 46.428C60.5429 46.428 38.3999 46.428 15.5859 46.428C15.5859 45.8689 15.5859 45.3097 15.5859 44.7336C31.0189 44.7336 46.4519 44.7336 62.3526 44.7336C62.3526 42.1614 62.3526 39.5892 62.3526 36.9391ZM65.7415 38.6336C65.7415 38.8572 65.7415 39.0809 65.7415 39.3114C66.1888 39.1995 66.6362 39.0877 67.097 38.9725C66.6497 38.8606 66.2024 38.7488 65.7415 38.6336Z"/>
<path d="M57.9531 46.7671C59.252 46.7075 60.5505 46.6718 61.8503 46.64C62.2156 46.623 62.5808 46.6059 62.957 46.5884C65.2576 46.5463 66.557 46.7811 68.2645 48.3725C68.4404 48.5137 68.6163 48.6549 68.7976 48.8004C69.9622 48.6379 70.399 48.2082 71.2574 47.4187C72.3714 46.6374 72.9334 46.6082 74.2794 46.6347C74.6714 46.6391 75.0635 46.6435 75.4675 46.648C75.8735 46.6593 76.2796 46.6707 76.6979 46.6824C77.3168 46.6916 77.3168 46.6916 77.9482 46.7009C78.9649 46.7169 79.9811 46.7391 80.9976 46.7671C79.6988 48.1254 78.3118 49.2845 76.825 50.4313C76.6064 50.6015 76.3877 50.7716 76.1624 50.947C75.6287 51.3621 75.0938 51.7759 74.5587 52.1893C75.7507 53.4828 77.1163 54.4559 78.5406 55.4723C79.3678 56.0632 80.1851 56.6613 80.9976 57.2727C80.9976 57.3845 80.9976 57.4963 80.9976 57.6115C79.5858 57.6809 78.1744 57.7227 76.7615 57.7598C76.3639 57.7797 75.9664 57.7996 75.5568 57.82C73.4758 57.861 72.153 57.8232 70.545 56.4162C70.1776 56.034 69.8166 55.6449 69.4753 55.2393C68.9197 55.5434 68.9197 55.5434 68.3528 55.8536C68.1444 55.9676 67.936 56.0816 67.7213 56.1991C67.085 56.5611 67.085 56.5611 66.6736 57.1217C65.8454 57.8127 65.2748 57.7278 64.208 57.7108C63.6625 57.7059 63.6625 57.7059 63.106 57.7009C62.7266 57.6924 62.3472 57.6839 61.9562 57.6751C61.5729 57.6705 61.1896 57.6659 60.7946 57.6612C59.8473 57.6492 58.9003 57.6325 57.9531 57.6115C58.5297 56.356 59.1539 55.7604 60.2618 54.9216C61.5052 53.9589 62.6398 52.9965 63.7142 51.8504C63.5299 51.774 63.3455 51.6975 63.1556 51.6188C62.1091 51.033 61.3269 50.2761 60.4524 49.457C59.2944 48.3208 59.2944 48.3208 57.9531 47.4449C57.9531 47.2212 57.9531 46.9975 57.9531 46.7671Z"/>
<path d="M16.6094 47.1051C18.9441 47.0428 21.276 46.9889 23.611 46.9562C24.4049 46.9426 25.1987 46.9241 25.9924 46.9006C27.1341 46.8677 28.2749 46.8523 29.417 46.8404C29.7715 46.8264 30.126 46.8124 30.4912 46.798C32.9054 46.7965 32.9054 46.7965 33.8264 47.7148C34.9094 49.4115 34.9094 49.4115 34.9094 50.1551C31.2189 50.1551 27.5284 50.1551 23.726 50.1551C23.726 50.6025 23.726 51.0498 23.726 51.5107C26.8574 51.5107 29.9887 51.5107 33.2149 51.5107C33.2149 52.4053 33.2149 53.3 33.2149 54.2218C30.0836 54.2218 26.9523 54.2218 23.726 54.2218C23.726 55.3401 23.726 56.4585 23.726 57.6107C21.3775 57.6107 19.029 57.6107 16.6094 57.6107C16.6094 54.1438 16.6094 50.677 16.6094 47.1051Z"/>
<path d="M34.9062 36.9385C38.2951 36.9385 38.2951 36.9385 39.5236 37.9551C39.7892 38.2906 40.0548 38.6261 40.3285 38.9718C40.4403 38.3008 40.5521 37.6298 40.6674 36.9385C41.8975 36.9385 43.1277 36.9385 44.3951 36.9385C44.3951 39.3988 44.3951 41.8591 44.3951 44.394C40.6674 44.394 40.6674 44.394 39.7844 43.7268C39.6075 43.4438 39.4305 43.1607 39.2483 42.869C39.0617 42.586 38.8752 42.3029 38.683 42.0112C38.491 41.681 38.491 41.681 38.2951 41.344C38.1833 42.3505 38.0715 43.357 37.9562 44.394C36.9497 44.394 35.9432 44.394 34.9062 44.394C34.9062 41.9337 34.9062 39.4734 34.9062 36.9385Z"/>
<path d="M52.5299 36.9385C53.6482 36.9385 54.7665 36.9385 55.9187 36.9385C55.9187 38.5041 55.9187 40.0698 55.9187 41.6829C56.8134 41.6829 57.7081 41.6829 58.6299 41.6829C58.6299 40.1173 58.6299 38.5516 58.6299 36.9385C59.7482 36.9385 60.8665 36.9385 62.0187 36.9385C62.3804 41.4502 62.3804 41.4502 61.5263 42.8002C60.0299 44.0702 58.6227 44.5139 56.6402 44.492C55.3838 44.3214 54.588 43.7532 53.5465 43.0385C53.3578 42.9092 53.1691 42.7799 52.9746 42.6466C52.2682 41.6542 52.4237 40.5855 52.4663 39.4166C52.4709 39.1787 52.4755 38.9409 52.4802 38.6958C52.4922 38.1099 52.5104 37.5242 52.5299 36.9385Z"/>
<path d="M26.7734 36.9385C29.1219 36.9385 31.4704 36.9385 33.8901 36.9385C33.8901 38.2805 33.8901 39.6225 33.8901 41.0051C32.6599 41.0051 31.4298 41.0051 30.1623 41.0051C30.1623 41.2288 30.1623 41.4525 30.1623 41.6829C31.3925 41.6829 32.6227 41.6829 33.8901 41.6829C33.8901 42.3539 33.8901 43.0249 33.8901 43.7163C31.5416 43.7163 29.1931 43.7163 26.7734 43.7163C26.7734 41.4796 26.7734 39.2429 26.7734 36.9385Z"/>
<path d="M74.8906 23.0449C75.7853 23.0449 76.68 23.0449 77.6017 23.0449C77.6017 24.9461 77.6017 26.8473 77.6017 28.806C78.9437 28.6383 78.9437 28.6383 80.3129 28.4671C80.5365 28.579 80.7602 28.6908 80.9906 28.806C80.9906 30.5954 80.9906 32.3847 80.9906 34.2283C80.2078 34.2283 79.425 34.2283 78.6184 34.2283C78.6184 32.9981 78.6184 31.7679 78.6184 30.5005C78.2829 30.5005 77.9474 30.5005 77.6017 30.5005C77.6017 31.7306 77.6017 32.9608 77.6017 34.2283C76.7071 34.2283 75.8124 34.2283 74.8906 34.2283C74.8906 30.5378 74.8906 26.8473 74.8906 23.0449Z"/>
<path d="M44.7344 36.9385C47.1947 36.9385 49.655 36.9385 52.1899 36.9385C52.1899 37.4976 52.1899 38.0568 52.1899 38.6329C51.2953 38.6329 50.4006 38.6329 49.4788 38.6329C49.4788 40.4223 49.4788 42.2116 49.4788 44.0551C48.5842 44.0551 47.6895 44.0551 46.7677 44.0551C46.7677 42.2658 46.7677 40.4765 46.7677 38.6329C46.0967 38.6329 45.4257 38.6329 44.7344 38.6329C44.7344 38.0738 44.7344 37.5146 44.7344 36.9385Z"/>
<path d="M71.5078 26.0947C72.067 26.0947 72.6261 26.0947 73.2023 26.0947C73.2023 26.7657 73.2023 27.4367 73.2023 28.1281C73.6496 28.1281 74.0969 28.1281 74.5578 28.1281C74.5578 28.6872 74.5578 29.2464 74.5578 29.8225C74.1105 29.8225 73.6631 29.8225 73.2023 29.8225C73.2023 31.2763 73.2023 32.7302 73.2023 34.2281C72.6431 34.2281 72.0839 34.2281 71.5078 34.2281C71.5078 31.5441 71.5078 28.8601 71.5078 26.0947Z"/>
</svg>
