<svg fill="currentColor" width="98" height="76" viewBox="0 0 98 76" xmlns="http://www.w3.org/2000/svg">
<path d="M59.3072 5.0837C59.7318 5.22349 60.1564 5.36328 60.5939 5.50731C69.0484 8.49549 75.6484 14.7432 79.6691 22.7096C83.2683 30.5299 84.0783 39.9268 81.3349 48.1226C81.1951 48.5472 81.0554 48.9718 80.9113 49.4093C77.9231 57.8638 71.6754 64.4638 63.7091 68.4845C55.8887 72.0838 46.4918 72.8937 38.296 70.1504C37.6591 69.9407 37.6591 69.9407 37.0093 69.7268C28.5548 66.7386 21.9548 60.4908 17.9341 52.5245C14.3349 44.7041 13.5249 35.3072 16.2683 27.1115C16.4081 26.6869 16.5478 26.2622 16.6919 25.8248C19.6801 17.3702 25.9278 10.7703 33.8941 6.74951C41.7145 3.15029 51.1114 2.34035 59.3072 5.0837ZM26.9315 15.4216C24.3782 17.7433 24.3782 17.7433 23.046 20.6726C23.2733 20.6693 23.5005 20.666 23.7346 20.6626C26.1211 20.6316 28.5069 20.6247 30.8936 20.6312C31.7817 20.6306 32.6698 20.6239 33.5577 20.611C42.6265 20.4867 42.6265 20.4867 45.9752 23.6063C46.2369 23.8683 46.4986 24.1304 46.7683 24.4004C47.2715 24.7359 47.2715 24.7359 47.7849 25.0781C47.9036 25.9308 47.9552 26.7031 47.9649 27.5589C47.9716 27.8147 47.9782 28.0705 47.9851 28.334C48.0052 29.1832 48.0171 30.0322 48.0272 30.8816C48.0313 31.1721 48.0355 31.4626 48.0397 31.762C48.061 33.3018 48.0755 34.8415 48.085 36.3814C48.0962 37.9667 48.1311 39.5504 48.1716 41.1352C48.1983 42.358 48.2067 43.5806 48.2104 44.8038C48.2153 45.3875 48.227 45.9712 48.246 46.5547C48.3918 51.3492 48.3918 51.3492 46.8979 52.9496C45.9166 53.8356 44.8416 54.5431 43.7183 55.2393C43.3738 55.5288 43.3738 55.5288 43.0225 55.8242C42.1634 56.3863 41.5819 56.3903 40.56 56.4024C40.2006 56.4092 39.8411 56.4159 39.4707 56.4228C39.0848 56.4249 38.6989 56.4271 38.3013 56.4293C37.9046 56.4354 37.5078 56.4415 37.0991 56.4478C35.8319 56.4661 34.5647 56.4776 33.2974 56.4889C32.4383 56.5001 31.5792 56.5118 30.72 56.524C28.6139 56.5528 26.5078 56.5759 24.4016 56.5948C24.7238 57.0299 25.0467 57.4645 25.3699 57.8988C25.5497 58.1409 25.7294 58.3829 25.9146 58.6323C30.1056 64.0581 37.4265 67.43 44.0572 68.4559C52.5674 69.5242 61.0426 67.5528 67.8853 62.25C69.864 60.668 71.6421 58.9387 73.2016 56.9337C73.2016 56.8219 73.2016 56.71 73.2016 56.5948C73.0056 56.5996 72.8096 56.6044 72.6077 56.6093C70.5398 56.6557 68.4731 56.6725 66.4048 56.6734C65.6364 56.6774 64.868 56.6886 64.0998 56.7075C55.8761 56.8999 55.8761 56.8999 52.7167 54.5381C49.8679 51.5893 50.4494 46.2972 50.4987 42.4806C50.5187 41.5527 50.5415 40.6248 50.5645 39.697C50.5862 38.4497 50.5727 37.2039 50.5589 35.9567C50.5494 34.748 50.5601 33.5402 50.5769 32.3317C50.5829 31.7575 50.5835 31.1833 50.5781 30.6091C50.5549 25.9321 50.5549 25.9321 52.0706 24.3253C53.0515 23.4422 54.1229 22.7292 55.2405 22.0281C55.4888 21.835 55.737 21.6418 55.9928 21.4428C57.3048 20.5047 59.1952 20.8235 60.7474 20.8208C61.1227 20.8084 61.4979 20.7959 61.8846 20.7831C64.2101 20.7707 65.5728 21.0541 67.3382 22.6067C67.4838 22.7513 67.6294 22.8959 67.7794 23.0448C68.5449 21.9421 68.5449 21.9421 68.796 20.6726C70.6972 20.6726 72.5984 20.6726 74.5572 20.6726C71.5549 14.668 65.3776 10.4439 59.1867 8.2065C47.91 4.44762 35.488 7.02846 26.9315 15.4216ZM19.3183 27.4504C16.6668 36.6134 17.5243 44.849 21.8427 53.3423C22.2802 54.2546 22.2802 54.2546 23.046 54.5615C23.1168 51.377 23.171 48.1928 23.2041 45.0077C23.22 43.5286 23.2415 42.05 23.2761 40.5711C23.3094 39.1428 23.3275 37.715 23.3354 36.2864C23.341 35.7425 23.352 35.1986 23.3685 34.6549C23.54 31.6264 23.54 31.6264 22.3706 28.9465C20.997 27.817 20.997 27.817 19.3183 27.4504ZM75.9127 23.0448C75.7406 24.4 75.5721 25.7557 75.4044 27.1115C75.3559 27.4928 75.3074 27.8742 75.2574 28.2671C75.2116 28.6406 75.1657 29.0141 75.1184 29.399C75.0758 29.7397 75.0333 30.0805 74.9894 30.4315C74.8809 31.6928 74.896 32.9622 74.896 34.2281C72.1002 34.2281 69.3044 34.2281 66.4238 34.2281C66.4238 32.4388 66.4238 30.6495 66.4238 28.8059C63.8517 28.8059 61.2795 28.8059 58.6294 28.8059C59.0767 29.3651 59.524 29.9242 59.9849 30.5004C60.1494 31.3103 60.1494 31.3103 60.143 32.1591C60.1443 32.4791 60.1455 32.7992 60.1467 33.129C60.1418 33.4707 60.1369 33.8125 60.1319 34.1646C60.1351 34.8927 60.1384 35.6208 60.1418 36.3488C60.1389 37.4934 60.1332 38.6379 60.1257 39.7824C60.1208 40.8893 60.1259 41.9959 60.1319 43.1028C60.1263 43.4445 60.1207 43.7863 60.1149 44.1384C60.1264 45.7395 60.1376 46.5153 61.1125 47.8329C62.2636 48.6317 62.9397 48.6374 64.3269 48.5674C65.0189 48.5324 65.7109 48.4975 66.4238 48.4615C66.4238 46.784 66.4238 45.1065 66.4238 43.3781C69.3315 43.3781 72.2392 43.3781 75.2349 43.3781C75.2349 46.7331 75.2349 50.0881 75.2349 53.5448C79.3365 48.4179 80.4298 40.9589 79.8448 34.5403C79.3852 30.5385 78.2303 26.5624 76.2516 23.0448C76.1398 23.0448 76.0279 23.0448 75.9127 23.0448ZM31.1794 29.1448C31.4265 29.4245 31.4265 29.4245 31.6786 29.7099C32.2978 30.6558 32.3292 31.1808 32.3426 32.303C32.3493 32.6625 32.356 33.022 32.3629 33.3924C32.3651 33.7783 32.3672 34.1642 32.3695 34.5617C32.3755 34.9585 32.3816 35.3552 32.3879 35.764C32.4063 37.0312 32.4177 38.2984 32.429 39.5656C32.4403 40.4248 32.452 41.2839 32.4641 42.143C32.4929 44.2491 32.5161 46.3553 32.5349 48.4615C33.1772 48.4891 33.8197 48.5087 34.4624 48.525C34.999 48.5427 34.999 48.5427 35.5465 48.5608C36.734 48.449 37.3461 48.1517 38.296 47.4448C38.7007 46.6356 38.6843 46.1218 38.6949 45.2184C38.6993 44.8971 38.7036 44.5759 38.7081 44.2449C38.7106 43.8968 38.7131 43.5488 38.7157 43.1902C38.7184 42.8333 38.7212 42.4764 38.724 42.1087C38.7287 41.3526 38.7323 40.5966 38.735 39.8405C38.7408 38.6831 38.7557 37.526 38.7706 36.3687C38.7741 35.6349 38.7769 34.9011 38.7792 34.1672C38.7852 33.8206 38.7911 33.4739 38.7972 33.1167C38.8132 31.2506 38.8132 31.2506 38.0398 29.6017C37.204 29.0995 36.7789 28.9848 35.8126 29.0124C35.4064 29.019 35.4064 29.019 34.9919 29.0257C34.7123 29.037 34.4327 29.0484 34.1447 29.0601C33.7174 29.0693 33.7174 29.0693 33.2815 29.0786C32.5807 29.0945 31.88 29.1189 31.1794 29.1448Z"/>
</svg>
