<svg fill="currentColor" width="98" height="76" viewBox="0 0 98 76" xmlns="http://www.w3.org/2000/svg">
<path d="M35.6533 29.2468C37.8711 31.0134 40.0247 32.8484 41.0054 35.5838C41.2349 37.6876 41.2775 39.5875 39.9887 41.3449C36.9183 44.655 33.2682 45.9127 28.806 46.121C24.8159 46.2326 24.8159 46.2326 22.9238 45.8736C22.628 45.833 22.3323 45.7923 22.0276 45.7505C21.7026 46.086 21.7026 46.086 21.371 46.4282C20.672 47.106 20.672 47.106 19.4647 47.1696C19.0803 47.0368 18.6959 46.904 18.2998 46.7671C18.1539 46.391 18.008 46.0149 17.8577 45.6274C17.4406 44.553 17.3101 44.412 16.2651 43.7516C15.6682 43.5039 15.6682 43.5039 15.0592 43.2512C12.7953 42.2319 10.6488 41.0139 9.14981 38.9727C9.01743 37.9176 9.01743 37.9176 9.14981 36.9394C10.8126 34.8853 13.4243 34.3985 15.9276 33.8894C16.605 33.8686 17.2837 33.8615 17.9609 33.8894C17.9491 33.6683 17.9373 33.4473 17.9252 33.2195C17.8673 31.3525 17.9486 30.0964 18.9776 28.4671C19.9083 28.5955 20.2655 28.7309 20.905 29.4414C21.7546 30.8169 21.7185 31.9686 21.6887 33.5505C22.1743 33.5328 22.1743 33.5328 22.6696 33.5147C25.9254 33.4466 29.52 33.4272 32.1942 35.5838C32.7976 36.4065 32.8832 36.7868 32.8085 37.8078C32.4921 38.757 32.3587 39.1071 31.5165 39.6505C30.6132 39.8786 29.7378 40.0288 28.8054 39.9894C28.3021 39.6539 28.3021 39.6539 27.7887 39.3116C28.1276 38.2949 28.1276 38.2949 28.8054 37.6171C26.4345 37.0874 24.111 36.7868 21.6887 36.6005C21.6887 38.6135 21.6887 40.6265 21.6887 42.7005C29.0232 42.8542 29.0232 42.8542 35.6043 39.9258C36.3908 38.7841 36.5308 38.1027 36.4423 36.7355C35.8655 34.1505 34.0063 32.4762 31.8554 31.0935C24.3637 26.7234 16.7969 24.8894 8.13314 25.0782C7.90947 25.5256 7.68581 25.9729 7.45536 26.4338C6.96118 26.443 6.46696 26.4495 5.97272 26.455C5.69751 26.4589 5.42229 26.4628 5.13874 26.4669C4.40536 26.4338 4.40536 26.4338 3.72758 26.0949C3.61209 25.0555 3.63304 24.5443 4.21474 23.6591C12.1904 18.0178 28.5336 24.1391 35.6533 29.2468ZM14.4238 36.897C13.8478 36.9796 13.8478 36.9796 13.2602 37.0638C12.3261 37.2527 11.6597 37.4792 10.8442 37.956C12.0294 39.8748 13.9245 40.786 15.9276 41.6838C16.7663 41.8515 16.7663 41.8515 17.622 42.0227C17.622 40.2334 17.622 38.444 17.622 36.6005C16.5254 36.6005 15.5087 36.7369 14.4238 36.897Z"/>
<path d="M65.7455 31.5166C67.549 31.936 68.4774 32.7092 69.4733 34.2277C70.7238 36.3407 70.8021 38.588 70.4899 41.0055C70.0067 41.9638 69.5531 42.6201 68.7955 43.3777C67.4825 43.5263 66.692 43.5313 65.5337 42.8694C64.5048 41.7863 63.7721 40.6045 63.0344 39.311C62.9728 39.7396 62.9728 39.7396 62.9099 40.1768C62.8531 40.5481 62.7964 40.9194 62.7378 41.302C62.6828 41.6716 62.6278 42.0412 62.5711 42.4219C62.3566 43.3777 62.3566 43.3777 61.6788 44.0555C60.874 44.2038 60.874 44.2038 59.9844 44.0555C59.2007 43.2083 59.2007 43.2083 58.6288 42.361C58.3213 42.5777 58.0137 42.7944 57.6969 43.0176C55.4867 44.4202 53.052 44.2629 50.4955 44.0555C48.8867 43.6041 47.5217 42.9754 46.4288 41.6833C46.3017 40.836 46.3017 40.836 46.4288 39.9888C46.9372 39.3746 46.9372 39.3746 47.4455 38.9722C47.1589 38.7974 46.8723 38.6227 46.5771 38.4426C45.751 37.6166 45.751 37.6166 45.6875 36.4305C46.2028 34.9116 46.7034 34.5987 48.1233 33.8888C50.294 33.0845 52.3707 33.1098 54.6681 33.1263C55.0396 33.1237 55.4111 33.1211 55.7939 33.1184C56.148 33.1193 56.5021 33.1201 56.8669 33.121C57.189 33.1218 57.5111 33.1226 57.8429 33.1233C58.6288 33.211 58.6288 33.211 59.3066 33.8888C59.1795 34.7784 59.1795 34.7784 58.9677 35.5833C57.709 35.9615 56.4628 36.028 55.1552 36.1128C54.7271 36.1412 54.299 36.1696 53.8579 36.1988C53.5311 36.2194 53.2044 36.2399 52.8677 36.261C53.4323 36.8256 54.1914 36.7636 54.9646 36.8753C56.6391 37.1609 57.6562 37.5699 58.9677 38.6333C59.0293 38.376 59.0909 38.1187 59.1544 37.8536C59.2821 37.3483 59.2821 37.3483 59.4125 36.8329C59.4951 36.4987 59.5776 36.1645 59.6627 35.8202C59.9881 34.8949 60.2333 34.4807 61.001 33.8888C61.7635 33.677 61.7635 33.677 62.6955 33.8888C64.3691 35.1901 65.5878 36.8895 66.7622 38.6333C66.6927 38.3712 66.6232 38.109 66.5517 37.839C66.0363 35.8465 65.5617 33.9107 65.4066 31.8555C65.5184 31.7437 65.6303 31.6318 65.7455 31.5166ZM54.901 39.311C55.1247 39.7584 55.3484 40.2057 55.5788 40.6666C55.8025 40.5548 56.0262 40.4429 56.2566 40.3277C56.1448 39.9922 56.0329 39.6567 55.9177 39.311C55.5822 39.311 55.2467 39.311 54.901 39.311ZM48.4622 40.3277C48.4622 40.5514 48.4622 40.775 48.4622 41.0055C49.399 41.4739 50.1722 41.3767 51.2156 41.3656C51.5869 41.3625 51.9583 41.3594 52.3408 41.3563C52.6265 41.3524 52.9122 41.3484 53.2066 41.3444C53.2066 41.2325 53.2066 41.1207 53.2066 41.0055C52.6704 40.8909 52.1337 40.7783 51.5969 40.6666C51.2981 40.6037 50.9993 40.5408 50.6914 40.476C49.7427 40.2899 49.7427 40.2899 48.4622 40.3277Z"/>
<path d="M86.7558 32.8721C86.6252 34.9612 85.9184 36.2563 84.7224 37.9554C84.8613 37.8086 85.0003 37.6618 85.1434 37.5106C85.326 37.3219 85.5086 37.1332 85.6967 36.9387C85.8776 36.75 86.0584 36.5613 86.2448 36.3669C86.7558 35.9221 86.7558 35.9221 87.4335 35.9221C87.5454 35.5866 87.6572 35.2511 87.7724 34.9054C89.3997 33.8338 90.6277 33.645 92.5169 33.8887C93.5347 34.6266 93.8045 35.202 94.0233 36.4304C94.1307 38.1101 94.0156 39.3686 93.0464 40.7724C91.634 42.3767 90.0229 43.8936 87.8399 44.1798C87.0156 44.1822 86.2189 44.1477 85.4002 44.0554C85.3419 44.3909 85.3419 44.3909 85.2824 44.7332C85.0069 46 84.626 47.2262 84.2353 48.461C84.1617 48.6977 84.0881 48.9345 84.0122 49.1784C83.6188 50.4307 83.1978 51.6551 82.6891 52.8665C80.4911 52.7006 80.4911 52.7006 79.7397 51.9544C78.8945 50.4499 79.1053 48.7759 79.3002 47.1054C79.7191 45.7739 80.3284 44.594 81.0516 43.4041C81.4191 42.4861 81.2969 41.8916 81.1429 40.9207C80.8992 38.6241 81.2383 37.2533 82.66 35.4283C84.874 32.8721 84.874 32.8721 86.7558 32.8721ZM90.1539 37.1452C89.9202 37.3846 89.6865 37.624 89.4457 37.8707C89.2111 38.1066 88.9765 38.3425 88.7348 38.5855C88.1557 39.2593 87.7858 39.856 87.4335 40.6665C89.078 40.5135 90.0153 40.1818 91.1613 38.9721C91.6216 37.7437 91.6216 37.7437 91.8391 36.5998C90.8099 36.4927 90.8099 36.4927 90.1539 37.1452Z"/>
<path d="M77.6714 33.0836C77.9726 33.0709 78.2738 33.0583 78.5842 33.0452C80.7733 33.0156 80.7733 33.0156 81.9035 34.0023C82.3523 34.9051 82.3523 34.9051 82.0134 35.9218C80.8385 36.3134 79.7966 36.372 78.561 36.4513C77.9142 36.4939 77.9142 36.4939 77.2544 36.5373C76.9237 36.5579 76.593 36.5784 76.2523 36.5996C76.4686 36.6201 76.6848 36.6406 76.9076 36.6618C77.1876 36.6902 77.4676 36.7186 77.7561 36.7478C78.1749 36.7891 78.1749 36.7891 78.602 36.8312C79.3023 36.9385 79.3023 36.9385 79.6412 37.2773C79.655 37.955 79.6556 38.6331 79.6412 39.3107C78.3336 39.7465 77.0797 39.7755 75.7096 39.86C75.4413 39.9024 75.1731 39.9448 74.8968 39.9885C74.7849 40.2121 74.6731 40.4358 74.5579 40.6662C74.8724 40.5824 74.8724 40.5824 75.1933 40.4968C76.6643 40.2614 78.1564 40.1723 79.6412 40.3273C79.8649 40.551 80.0885 40.7747 80.319 41.0051C80.2952 41.8365 80.2952 41.8365 79.9801 42.6996C79.2414 43.2238 79.2414 43.2238 78.328 43.6315C78.0283 43.7696 77.7287 43.9076 77.4199 44.0498C75.7428 44.7464 74.3267 44.9542 72.5245 44.7329C71.5079 44.2034 71.5079 44.2034 70.8301 43.3773C70.2915 41.4538 70.5748 39.5683 70.8301 37.6162C71.3893 37.5044 71.9484 37.3926 72.5245 37.2773C72.5245 36.83 72.5245 36.3827 72.5245 35.9218C72.0772 35.81 71.6299 35.6981 71.169 35.5829C71.0571 35.1356 70.9453 34.6882 70.8301 34.2273C72.8058 32.9102 75.3571 33.121 77.6714 33.0836Z"/>
<path d="M51.5082 25.4165C51.847 25.7554 51.847 25.7554 52.0165 26.6238C51.7604 28.3842 50.7835 29.344 49.4748 30.4999C47.2858 31.9173 45.4149 32.238 42.8453 32.14C41.9541 32.1986 41.4264 32.4219 40.6637 32.8721C39.2322 31.5837 38.7419 30.5748 38.4609 28.6783C38.6956 26.9768 39.3186 26.1267 40.6637 25.0776C44.4292 23.0455 47.9189 23.164 51.5082 25.4165ZM43.3748 29.8221C45.6408 29.7309 47.2917 29.5011 49.1359 28.1276C49.4868 27.4114 49.4868 27.4114 49.4748 26.7721C46.7756 26.5088 45.091 27.9499 43.3748 29.8221Z"/>
<path d="M43.0422 33.2109C43.9107 33.5638 44.4066 33.8976 45.0755 34.5665C45.5404 36.4261 45.4767 38.3381 45.478 40.2429C45.4821 40.5675 45.4863 40.892 45.4905 41.2265C45.4915 41.691 45.4915 41.691 45.4925 42.165C45.4939 42.4467 45.4953 42.7283 45.4967 43.0185C45.4144 43.7165 45.4144 43.7165 44.7366 44.3943C42.9654 44.5827 42.9654 44.5827 42.1378 43.9876C41.5349 43.1724 41.5602 42.6528 41.5635 41.6448C41.5637 41.3056 41.564 40.9663 41.5642 40.6169C41.5696 40.2628 41.5751 39.9087 41.5807 39.5439C41.5796 39.1938 41.5786 38.8437 41.5774 38.4829C41.6009 35.1606 41.6009 35.1606 42.3644 33.5498C42.5881 33.438 42.8117 33.3262 43.0422 33.2109Z"/>
</svg>
