<svg fill="currentColor" width="98" height="76" viewBox="0 0 98 76" xmlns="http://www.w3.org/2000/svg">
<path d="M14.9141 56.5947C16.297 56.7683 17.3574 57.2707 18.5814 57.893C33.2639 65.344 51.5209 68.2307 67.4418 63.3725C69.568 62.6537 71.6321 61.8073 73.6213 60.7646C74.6969 60.2572 75.1445 60.2814 76.2529 60.6614C76.5918 61.0003 76.5918 61.0003 76.7401 61.7773C76.5918 62.6947 76.5918 62.6947 75.7446 63.4321C75.3537 63.6806 74.9579 63.9215 74.5585 64.1562C74.345 64.2863 74.1314 64.4164 73.9114 64.5504C73.2289 64.959 72.5402 65.354 71.8474 65.7447C71.5241 65.928 71.5241 65.928 71.1943 66.1151C67.6253 68.1012 63.9286 69.4443 59.9863 70.4892C59.5547 70.6049 59.1231 70.7207 58.6784 70.84C51.6581 72.3801 43.4977 72.1071 36.603 70.1503C36.3566 70.0849 36.1103 70.0194 35.8565 69.952C29.3127 68.1828 23.3113 64.7713 17.9641 60.6614C17.6749 60.4666 17.3857 60.2717 17.0877 60.071C15.3272 58.8788 15.3272 58.8788 14.9141 57.4843C14.9141 57.1907 14.9141 56.8972 14.9141 56.5947Z"/>
<path d="M56.9371 9.48913C57.4603 9.72672 57.9761 9.98143 58.4833 10.2516C59.5429 10.8032 59.5429 10.8032 60.6741 10.6329C61.1227 10.3771 61.5671 10.1139 62.0072 9.8439C63.2244 9.21896 64.422 9.24399 65.7482 9.48913C67.1216 10.1883 67.9307 10.7517 68.4593 12.2002C68.5162 13.073 68.5383 13.9074 68.5255 14.779C68.5245 15.0253 68.5236 15.2716 68.5226 15.5254C68.5188 16.3092 68.5103 17.0929 68.5017 17.8766C68.4983 18.4092 68.4952 18.9418 68.4924 19.4744C68.4849 20.7775 68.4732 22.0805 68.4593 23.3836C67.1173 23.3836 65.7753 23.3836 64.3926 23.3836C64.2808 20.1404 64.169 16.8972 64.0537 13.5558C61.901 13.0359 61.901 13.0359 60.8684 13.5728C60.1082 14.4989 60.1418 15.1445 60.1195 16.3344C60.1085 16.744 60.0976 17.1535 60.0864 17.5755C60.0816 18.0034 60.0768 18.4313 60.0718 18.8721C60.0567 19.5199 60.0567 19.5198 60.0414 20.1807C60.0174 21.2483 59.9995 22.3157 59.9871 23.3836C58.7569 23.3836 57.5267 23.3836 56.2593 23.3836C56.2526 23.1099 56.2459 22.8363 56.2389 22.5544C56.2068 21.3198 56.1695 20.0854 56.1322 18.8509C56.1217 18.4202 56.1112 17.9895 56.1004 17.5457C56.0873 17.135 56.0742 16.7244 56.0607 16.3013C56.0501 15.9215 56.0394 15.5418 56.0285 15.1505C56.0105 14.1837 56.0105 14.1837 55.2426 13.5558C53.8692 13.4389 53.3626 13.4536 52.1926 14.2336C52.0194 15.1852 52.0194 15.1852 52.0192 16.3013C52.0072 16.712 51.9952 17.1226 51.9828 17.5457C51.9713 18.1918 51.9713 18.1918 51.9596 18.8509C51.9481 19.2843 51.9365 19.7176 51.9246 20.1641C51.8965 21.2372 51.8746 22.3104 51.8537 23.3836C50.5117 23.3836 49.1697 23.3836 47.7871 23.3836C47.762 21.562 47.7435 19.7405 47.7312 17.9188C47.7261 17.2988 47.7192 16.6789 47.7104 16.0589C47.6981 15.1689 47.6923 14.2791 47.6878 13.389C47.6825 13.1108 47.6773 12.8326 47.6719 12.546C47.6717 11.7649 47.6717 11.7649 47.7871 10.5058C48.963 9.72183 49.4561 9.71294 50.8371 9.82802C51.1726 10.0517 51.5081 10.2753 51.8537 10.5058C52.1263 10.338 52.3989 10.1703 52.6798 9.99746C54.1716 9.36932 55.3399 9.22734 56.9371 9.48913Z"/>
<path d="M47.108 29.8223C48.45 29.8223 49.792 29.8223 51.1747 29.8223C51.1747 36.6441 51.1747 43.4659 51.1747 50.4945C48.1247 50.8334 48.1247 50.8334 47.4469 50.4945C47.4469 50.2708 47.4469 50.0472 47.4469 49.8167C47.1883 49.9845 46.9297 50.1522 46.6632 50.325C44.756 51.1008 42.8768 51.2317 40.9021 50.5713C38.9114 49.508 37.9285 47.8725 37.2802 45.75C36.7269 42.6201 37.6259 40.2437 39.3135 37.6167C40.1082 36.5837 40.7616 36.0044 42.0247 35.5834C44.2756 35.4333 44.8234 35.6209 47.108 36.6C47.108 34.3634 47.108 32.1267 47.108 29.8223ZM42.7236 39.7559C41.7155 41.3571 41.8703 43.2515 42.0247 45.0723C42.4898 46.1294 42.6955 46.5938 43.7191 47.1056C44.6308 47.169 45.5142 47.1347 46.4302 47.1056C46.8463 46.7648 46.8463 46.7648 46.8076 46.0749C46.8058 45.7786 46.804 45.4822 46.8022 45.1768C46.8011 44.8569 46.8 44.5369 46.7989 44.2072C46.796 43.8706 46.7932 43.534 46.7903 43.1872C46.7888 42.8493 46.7872 42.5114 46.7857 42.1632C46.7816 41.3255 46.7761 40.4878 46.7691 39.65C45.5173 39.0241 43.8879 38.9672 42.7236 39.7559Z"/>
<path d="M24.7418 9.48925C26.6338 10.5455 27.5498 12.023 28.2459 14.0391C28.9329 16.718 28.4185 18.9321 27.1141 21.3504C26.288 22.3458 26.288 22.3458 25.4196 23.0448C25.175 23.2475 24.9303 23.4502 24.6783 23.659C23.2604 24.2577 21.8551 24.2516 20.3363 24.0615C19.889 23.8378 19.4416 23.6141 18.9807 23.3837C18.9807 25.173 18.9807 26.9624 18.9807 28.8059C16.9677 28.9737 16.9677 28.9737 14.9141 29.1448C14.9141 22.8821 14.9141 16.6195 14.9141 10.167C17.9641 10.167 17.9641 10.167 18.6418 10.5059C19.1728 10.3007 19.6942 10.0705 20.2092 9.82814C21.9645 9.10581 22.9101 8.94874 24.7418 9.48925ZM18.9807 13.5559C18.9611 14.6149 18.949 15.6739 18.9384 16.733C18.9327 17.0344 18.927 17.3358 18.9212 17.6464C18.919 17.9347 18.9168 18.2231 18.9145 18.5201C18.911 18.7863 18.9074 19.0525 18.9038 19.3268C18.9198 20.0743 18.9198 20.0743 19.6585 20.6726C21.6523 20.8453 21.6523 20.8453 23.3863 19.9948C24.0271 18.1305 23.965 15.751 23.4286 13.8736C23.0972 13.1644 23.0972 13.1644 22.3696 12.8781C20.9976 12.7887 20.177 12.9008 18.9807 13.5559Z"/>
<path d="M75.8504 35.837C76.258 35.8283 76.6655 35.8195 77.0855 35.8105C78.8829 35.977 79.9581 36.5934 81.2514 37.828C83.0049 40.1114 82.8696 43.2043 82.6096 45.9335C82.3012 48.0137 81.7017 49.5492 79.9806 50.8329C77.7649 51.9369 75.5952 52.0423 73.2028 51.5106C71.3955 50.885 70.011 49.8343 69.1361 48.1217C68.5359 45.1019 68.3244 41.303 69.708 38.4846C71.5275 36.4684 73.1989 35.8709 75.8504 35.837ZM74.8973 39.6495C73.9226 40.6242 74.121 41.4136 74.1103 42.7465C74.1114 43.0595 74.1124 43.3725 74.1136 43.695C74.1081 44.0067 74.1027 44.3184 74.097 44.6395C74.0967 45.0887 74.0967 45.0887 74.0964 45.547C74.0954 45.8213 74.0943 46.0956 74.0933 46.3782C74.2494 47.2775 74.5046 47.5882 75.2361 48.1217C76.3606 48.0397 76.3606 48.0397 77.2695 47.444C77.299 46.89 77.3057 46.3347 77.3026 45.78C77.3015 45.4447 77.3004 45.1094 77.2993 44.764C77.2964 44.4112 77.2936 44.0585 77.2907 43.695C77.2891 43.3409 77.2876 42.9869 77.286 42.6221C77.282 41.7442 77.2764 40.8663 77.2695 39.9884C76.1162 39.7591 76.1162 39.7591 74.8973 39.6495Z"/>
<path d="M63.504 36.5693C64.9982 37.4282 65.9141 38.2927 66.4229 39.9886C66.455 41.7235 65.9526 43.1849 64.8966 44.5517C62.9282 45.7623 60.1704 45.2395 57.9507 45.0719C58.856 46.6997 58.856 46.6997 60.4924 47.423C61.5022 47.441 62.0899 47.3627 63.034 47.1053C63.9399 47.0737 64.8383 47.0902 65.7451 47.1053C65.8722 48.2067 65.8722 48.2067 65.7451 49.4775C64.0401 50.95 62.59 51.2819 60.3745 51.2447C58.67 51.0746 57.3492 50.4761 56.0021 49.4351C54.2553 47.2031 53.6459 45.156 53.7543 42.3158C54.0144 40.3674 54.7714 38.9636 56.2351 37.6587C58.4218 36.1414 60.9479 35.5945 63.504 36.5693ZM58.2896 40.6664C58.1777 41.1137 58.0659 41.561 57.9507 42.0219C59.1809 42.0219 60.411 42.0219 61.6785 42.0219C61.9021 41.5746 62.1258 41.1273 62.3562 40.6664C61.9192 40.2002 61.466 39.7488 61.0007 39.3108C59.853 39.3108 59.174 39.9889 58.2896 40.6664Z"/>
<path d="M81.1211 10.4648C82.129 11.1585 82.5794 11.6354 82.8182 12.8569C82.9701 14.7185 82.5349 16.1905 81.4428 17.7046C79.8003 18.949 77.5493 18.754 75.5732 18.6392C75.2377 18.5274 74.9022 18.4155 74.5565 18.3003C75.2022 19.5272 75.6021 20.2187 76.9287 20.6725C77.8242 20.6668 78.6679 20.6293 79.5551 20.5455C79.7914 20.5262 80.0278 20.507 80.2713 20.4872C80.8518 20.4395 81.432 20.387 82.0121 20.3336C82.0121 21.2283 82.0121 22.123 82.0121 23.0448C79.7712 24.2067 78.0713 24.8402 75.5387 24.2282C73.4608 23.5511 72.1897 22.37 71.0617 20.5031C70.0927 18.4147 70.0996 15.9406 70.7255 13.7465C71.5782 11.8547 72.8598 10.7614 74.6412 9.72219C76.9605 9.14237 79.0392 9.2493 81.1211 10.4648ZM76.9287 12.5392C76.0378 13.055 75.2873 13.5029 74.5565 14.2336C74.5565 14.5691 74.5565 14.9046 74.5565 15.2503C75.7867 15.2503 77.0168 15.2503 78.2843 15.2503C78.3961 14.6911 78.5079 14.132 78.6232 13.5559C78.064 13.2204 77.5048 12.8849 76.9287 12.5392Z"/>
<path d="M14.9141 36.2607C16.3679 36.2607 17.8217 36.2607 19.3196 36.2607C20.2143 39.1684 21.109 42.0761 22.0307 45.0719C23.0372 42.1642 24.0437 39.2565 25.0807 36.2607C26.4227 36.2607 27.7647 36.2607 29.1474 36.2607C28.6528 39.0056 27.7014 41.5565 26.7183 44.1555C26.4338 44.9089 26.1543 45.6641 25.875 46.4195C25.6953 46.8988 25.5152 47.378 25.3349 47.8571C25.2099 48.1959 25.2099 48.1959 25.0824 48.5416C24.4808 50.1163 24.4808 50.1163 23.7252 50.4941C22.9534 50.5748 22.9534 50.5748 22.0519 50.6C21.607 50.619 21.607 50.619 21.1531 50.6384C20.3363 50.4941 20.3363 50.4941 19.8433 49.9755C19.1454 48.8601 18.7062 47.6771 18.2566 46.4473C18.1603 46.1883 18.0639 45.9294 17.9647 45.6626C17.7622 45.117 17.5609 44.5709 17.3607 44.0245C17.0536 43.1875 16.7423 42.3521 16.4305 41.5168C16.2341 40.9859 16.0379 40.4548 15.842 39.9237C15.7489 39.6737 15.6557 39.4238 15.5597 39.1662C15.1901 38.1522 14.9141 37.349 14.9141 36.2607Z"/>
<path d="M33.55 9.82761C33.8889 10.1665 33.8889 10.1665 33.9101 11.0349C33.9031 11.3075 33.8961 11.5801 33.8889 11.8609C34.0247 11.7142 34.1606 11.5674 34.3006 11.4161C35.4803 10.2605 36.2429 9.68446 37.9344 9.70052C38.3887 9.74246 38.843 9.7844 39.3111 9.82761C39.3111 11.0578 39.3111 12.2879 39.3111 13.5554C38.2033 13.8323 37.4574 13.9318 36.3458 13.9155C36.075 13.9124 35.8041 13.9093 35.5251 13.9062C35.3206 13.9023 35.1162 13.8983 34.9056 13.8943C34.9073 14.1799 34.9091 14.4656 34.9109 14.7599C34.9167 15.8165 34.921 16.8731 34.9242 17.9297C34.9259 18.3877 34.9282 18.8456 34.9311 19.3035C34.9352 19.9605 34.937 20.6174 34.9387 21.2744C34.9404 21.6701 34.9422 22.0659 34.944 22.4736C34.9056 23.3832 34.9056 23.3832 34.5667 23.722C33.2247 23.722 31.8827 23.722 30.5 23.722C30.5 19.2487 30.5 14.7754 30.5 10.1665C31.5106 9.66119 32.4371 9.78714 33.55 9.82761Z"/>
<path d="M81.4308 55.6958C82.4068 56.6384 82.4193 57.653 82.4554 58.9457C82.4145 62.3827 81.1338 65.4744 78.9606 68.1168C77.5058 69.4724 77.5058 69.4724 76.5884 69.4724C76.7762 67.7751 77.1653 66.3542 77.7957 64.7703C78.5196 62.8231 78.7994 61.3672 78.6217 59.3057C77.3968 58.8974 76.2744 58.9163 74.9998 58.9245C74.6352 58.9255 74.6352 58.9255 74.2631 58.9265C72.6363 58.9398 71.0748 59.0385 69.4717 59.3057C69.3599 58.9702 69.248 58.6347 69.1328 58.2891C71.4879 55.6815 78.3596 53.8876 81.4308 55.6958Z"/>
<path d="M44.0566 9.82806C44.3921 10.0517 44.7276 10.2754 45.0733 10.5058C45.1806 11.4553 45.2238 12.3285 45.2202 13.2792C45.222 13.5541 45.2238 13.8291 45.2256 14.1123C45.2278 14.6943 45.2273 15.2763 45.2245 15.8583C45.2216 16.7496 45.2313 17.6401 45.2421 18.5313C45.2426 19.0963 45.2424 19.6614 45.2414 20.2264C45.2471 20.6267 45.2471 20.6267 45.253 21.0352C45.2295 22.8746 45.2295 22.8746 44.4512 23.7226C43.4735 24.1742 42.7483 24.177 41.6844 24.0614C41.0066 23.3836 41.0066 23.3836 40.9297 22.0934C40.9298 21.5377 40.9336 20.982 40.9404 20.4263C40.9414 20.1339 40.9424 19.8415 40.9433 19.5402C40.9471 18.6044 40.9557 17.6687 40.9643 16.7329C40.9677 16.0993 40.9708 15.4656 40.9735 14.832C40.981 13.2769 40.9927 11.722 41.0066 10.1669C42.1096 9.79929 42.9009 9.75583 44.0566 9.82806Z"/>
<path d="M33.4025 37.2351C33.812 37.2338 33.812 37.2338 34.2298 37.2324C34.9063 37.2774 34.9063 37.2774 35.2452 37.6163C35.2878 38.5612 35.3091 39.4973 35.314 40.4426C35.3159 40.7263 35.3179 41.0101 35.3199 41.3024C35.3231 41.9038 35.3253 42.5052 35.3266 43.1066C35.3299 44.029 35.3404 44.9511 35.3511 45.8734C35.3533 46.4566 35.3551 47.0397 35.3564 47.6228C35.3606 47.8999 35.3647 48.1771 35.3691 48.4626C35.366 49.2404 35.366 49.2404 35.2452 50.4941C34.0003 51.324 33.3259 51.2788 31.8563 51.1719C31.1785 50.4941 31.1785 50.4941 31.1016 49.235C31.1017 48.6936 31.1055 48.1522 31.1123 47.6109C31.1133 47.326 31.1142 47.0411 31.1152 46.7476C31.119 45.836 31.1275 44.9245 31.1361 44.0128C31.1395 43.3955 31.1426 42.7782 31.1454 42.1609C31.1529 40.646 31.1646 39.1312 31.1785 37.6163C31.9849 37.2131 32.5052 37.2322 33.4025 37.2351Z"/>
<path d="M44.0589 3.72812C44.9273 4.42708 44.9273 4.42708 45.4144 5.42256C45.4144 6.71501 45.3635 7.46411 44.5036 8.45138C43.4534 8.9339 42.8315 8.99836 41.6866 8.81145C40.6911 8.11249 40.6911 8.11249 39.9922 7.11701C39.9922 5.92427 40.1172 5.13478 40.6911 4.08819C41.7812 3.49041 42.8707 3.47759 44.0589 3.72812Z"/>
<path d="M34.2248 30.8393C35.0508 31.3689 35.0508 31.3689 35.5803 32.1949C35.7366 33.4454 35.7448 34.2383 35.1779 35.372C34.3782 36.0889 33.9451 36.2365 32.8692 36.2616C30.9584 35.4899 30.9584 35.4899 30.497 34.5671C30.3766 33.2671 30.3115 32.4842 31.0265 31.3689C32.1718 30.6347 32.8895 30.6486 34.2248 30.8393Z"/>
</svg>
