<svg fill="currentColor" width="98" height="76" viewBox="0 0 98 76" xmlns="http://www.w3.org/2000/svg">
<path d="M40.139 14.9476C38.446 15.4426 34.8607 17.9172 32.1717 20.3919C29.5823 22.9656 28.2876 24.3514 29.3831 23.4605C31.375 21.8767 31.4745 21.9757 31.375 25.2423C31.1758 29.0038 33.2672 30.0926 34.1635 26.7271C34.7611 24.4504 39.3423 23.9554 40.139 25.9352C40.5374 26.826 40.7366 26.6281 40.7366 25.6382C40.8362 23.9554 44.8199 21.7777 47.9072 21.7777C49.1023 21.7777 49.6003 21.3818 49.2019 20.6889C48.8035 19.897 49.2019 19.897 50.6958 20.6889C53.7831 22.3716 53.3847 20.1939 50.1978 18.1152C48.206 16.8284 47.2101 16.7294 45.8158 17.6203C44.4215 18.4122 43.7243 18.4122 42.9276 17.4223C42.0313 16.3334 42.4296 15.9375 44.5211 15.5415C46.1145 15.2446 47.708 15.4426 48.3056 15.9375C49.6003 17.2243 50.9945 17.0263 50.1978 15.5415C49.6999 14.8486 50.1978 14.9476 51.1937 15.8385C52.2892 16.6304 54.0819 17.1253 55.277 17.0264C57.7668 16.7294 61.9496 19.699 62.348 22.0747C62.4476 23.0645 62.1488 23.7575 61.6509 23.7575C61.2525 23.7575 61.0533 24.4504 61.3521 25.2423C61.7505 26.0342 62.348 26.7271 62.846 26.7271C63.3439 26.7271 63.7423 26.0342 63.7423 25.2423C63.7423 23.4605 65.8337 23.2625 67.726 24.9453C68.5227 25.6382 67.9252 24.6483 66.5309 22.7676C62.846 17.7193 54.779 13.8588 48.4052 13.9578C45.6166 13.9578 41.9317 14.4527 40.139 14.9476Z"/>
<path d="M58.7578 20.7875C58.7578 21.3814 59.455 21.7773 60.2517 21.7773C61.0484 21.7773 61.7456 21.5794 61.7456 21.3814C61.7456 21.1834 61.0484 20.7875 60.2517 20.3915C59.455 20.0946 58.7578 20.2925 58.7578 20.7875Z"/>
<path d="M28.1832 30.3897C26.1914 31.0826 26.4902 41.5752 28.3824 41.5752C29.5775 41.5752 29.8763 40.2884 29.8763 35.636C29.8763 32.3694 29.7767 29.6968 29.6771 29.7958C29.4779 29.7958 28.7808 30.0927 28.1832 30.3897Z"/>
<path d="M31.0752 30.488C31.2744 30.8839 32.1707 33.2596 33.2662 35.9323C36.0548 42.9603 36.9511 42.4654 41.5323 30.8839C41.8311 30.29 41.3331 29.6961 40.5364 29.6961C39.6401 29.6961 38.445 31.2799 37.7478 33.3586L36.5527 37.0211L35.1584 33.3586C34.2621 31.3789 32.9674 29.6961 32.1707 29.6961C31.3739 29.6961 30.876 29.993 31.0752 30.488Z"/>
<path d="M42.8281 35.1407V40.585H47.3098C49.7996 40.585 51.7914 40.09 51.7914 39.5951C51.7914 39.0012 50.4967 38.6052 48.8036 38.6052C47.2102 38.6052 45.8159 38.1103 45.8159 37.6154C45.8159 37.0214 46.7122 36.6255 47.8077 36.6255C48.9032 36.6255 49.7996 35.9326 49.7996 35.1407C49.7996 34.3488 48.9032 33.6559 47.8077 33.6559C46.7122 33.6559 45.8159 33.1609 45.8159 32.666C45.8159 32.0721 47.2102 31.6761 48.8036 31.6761C50.4967 31.6761 51.7914 31.1812 51.7914 30.6863C51.7914 30.0924 49.7996 29.6964 47.3098 29.6964H42.8281V35.1407Z"/>
<path d="M53.7812 35.0415C53.7812 39.298 54.1796 40.5848 55.2751 40.5848C56.0719 40.5848 56.4702 39.9909 56.1715 39.199C55.2751 36.9223 57.5657 36.4274 58.96 38.6051C60.5535 41.0797 63.3421 41.3767 61.9478 38.902C61.2506 37.8132 61.3502 36.6253 62.0474 35.4375C63.84 32.6659 61.7486 30.2902 57.3666 29.8942L53.7812 29.5973V35.0415ZM59.7568 33.7547C59.7568 34.2496 58.8604 34.6456 57.7649 34.6456C55.8727 34.6456 55.1755 33.5567 56.3706 32.3689C57.1674 31.577 59.7568 32.6659 59.7568 33.7547Z"/>
<path d="M66.0282 30.3899C63.4388 31.3797 64.6339 35.3392 67.8209 36.626C69.7131 37.4179 70.5098 38.2098 69.9123 38.8037C69.3147 39.3977 68.1196 39.3977 66.8249 38.7048C65.1319 37.7149 64.7335 37.8139 64.7335 39.0017C64.7335 40.6845 68.9164 42.0703 71.207 41.1794C73.9956 40.1896 72.9996 36.1311 69.5139 34.3493L66.2274 32.6666L69.5139 32.9635C73.0992 33.3595 73.6968 32.2706 70.8086 30.6868C68.7172 29.598 67.9204 29.598 66.0282 30.3899Z"/>
<path d="M14.9375 36.626C14.9375 41.4763 15.2363 42.3672 16.4314 41.9713C17.3277 41.5753 17.9253 40.0905 17.9253 38.4077V35.4381L20.5146 38.5067C21.9089 40.1895 23.5024 41.5753 24.0004 41.5753C24.4983 41.5753 24.8967 39.1006 24.8967 36.131C24.8967 31.7756 24.5979 30.6868 23.3032 30.6868C22.0085 30.6868 21.8093 31.3797 22.1081 33.8543L22.6061 36.9229L20.0167 33.7554C16.1326 29.103 14.9375 29.6969 14.9375 36.626Z"/>
<path d="M76.0862 35.3392C74.9907 38.0118 74.0943 40.3875 73.8952 40.7834C73.696 41.2784 74.1939 41.5753 75.0903 41.5753C75.9866 41.5753 76.6837 41.0804 76.6837 40.5855C76.6837 38.9027 80.8666 39.4966 82.2609 41.2784C82.958 42.2682 83.8543 42.7632 84.1531 42.3672C85.2486 41.2784 80.6674 30.6868 79.1735 30.6868C78.4764 30.6868 77.0821 32.7655 76.0862 35.3392ZM80.0699 36.131C80.3686 37.0219 80.0699 37.6159 79.1735 37.6159C78.2772 37.6159 77.9784 37.0219 78.2772 36.131C78.6756 35.3392 78.9743 34.6462 79.1735 34.6462C79.3727 34.6462 79.6715 35.3392 80.0699 36.131Z"/>
<path d="M3.98438 36.6258C3.98438 40.5853 4.38274 41.6741 6.0758 42.565C7.66927 43.4559 8.66519 43.3569 10.5574 42.0701C12.4497 40.8822 12.9476 39.6944 12.9476 36.1308C12.9476 32.8643 12.5493 31.6764 11.4538 31.6764C10.3583 31.6764 9.95988 32.8643 9.95988 36.2298C9.95988 39.9913 9.66111 40.6842 8.26682 40.3873C6.97213 40.1893 6.37458 38.9025 6.1754 35.8339C5.77703 29.9937 3.98438 30.5876 3.98438 36.6258Z"/>
<path d="M86.6484 37.1205C86.6484 41.8719 86.9472 42.5648 88.5407 42.5648C89.6362 42.5648 91.1301 42.8618 92.0264 43.1587C93.1219 43.5547 93.6199 43.2577 93.6199 42.1689C93.6199 41.179 92.7235 40.5851 91.1301 40.5851C88.8395 40.5851 88.6403 40.1891 88.6403 36.1307C88.6403 33.656 88.2419 31.6762 87.6444 31.6762C87.1464 31.6762 86.6484 34.1509 86.6484 37.1205Z"/>
<path d="M38.8438 43.456C38.8438 44.0499 39.3417 44.7428 39.8397 45.0397C40.4372 45.4357 40.6364 47.5144 40.238 50.385C39.7401 53.9486 40.0389 55.3344 41.234 56.3242C42.6282 57.5121 42.8274 57.5121 42.3295 56.2253C41.9311 55.3344 43.2258 53.8496 45.9148 52.1668C48.1058 50.682 50.2968 49.4942 50.6952 49.4942C51.4919 49.4942 55.7744 44.0499 55.7744 43.06C55.7744 42.763 51.9899 42.5651 47.3091 42.5651C42.6282 42.5651 38.8438 42.961 38.8438 43.456Z"/>
<path d="M66.4306 50.8797C64.14 54.3442 58.7621 57.3138 52.5874 58.5016C45.3172 59.9864 37.4494 57.8087 31.5735 52.7604L27.3906 49.0979L30.8763 52.8594C37.1506 59.6895 46.4127 62.0652 55.8739 59.2935C59.9572 58.0067 66.1318 53.4533 67.7253 50.3847C69.2192 47.7121 68.2233 48.009 66.4306 50.8797Z"/>
</svg>
